<svg width="25" height="25" viewBox="0 0 25 25" fill="none" xmlns="http://www.w3.org/2000/svg">
<path id="Vector" d="M22.9727 1.86852C22.8595 1.33882 22.5717 0.864617 22.1574 0.524716C21.743 0.184716 21.2269 -0.000382398 20.695 1.62615e-05L8.86123 1.67788e-05C8.33309 -0.0019821 7.81996 0.179016 7.40608 0.513416C6.99219 0.847816 6.70213 1.31562 6.58351 1.84022L1.86113 1.84022C1.36924 1.84582 0.899062 2.04752 0.551224 2.40202C0.203387 2.75652 0.00552877 3.23572 -9.2943e-07 3.73712L-1.65833e-07 21.2062C0.000520671 21.4538 0.0492203 21.6989 0.143281 21.9272C0.237341 22.1555 0.374893 22.3625 0.547978 22.5363C0.721063 22.7101 0.926243 22.8471 1.15164 22.9396C1.37705 23.032 1.61819 23.0779 1.86113 23.0747L6.55569 23.0747C6.65252 23.6174 6.93397 24.1079 7.35056 24.4601C7.76715 24.8122 8.2922 25.0034 8.8334 25L20.695 25C21.1887 25.0027 21.6703 24.8448 22.0698 24.5493C22.4694 24.2537 22.7659 23.8359 22.9163 23.3566C23.4849 23.3039 24.0138 23.0366 24.3992 22.6072C24.7846 22.1778 24.9989 21.6172 25 21.0352L25 4.16171C24.9913 3.59421 24.7811 3.04921 24.4084 2.62751C24.0356 2.20592 23.5256 1.93631 22.9727 1.86852ZM8.86123 0.820818L20.7228 0.820817C21.0451 0.818418 21.3595 0.921716 21.6196 1.11552C21.8798 1.30932 22.0718 1.58332 22.1674 1.89692C21.7215 2.00522 21.3172 2.24602 21.0057 2.58881C20.6942 2.93152 20.4895 3.36082 20.4176 3.82222L8.86123 3.82222C8.46702 3.82552 8.08763 3.66931 7.80636 3.38771C7.52508 3.10621 7.36492 2.72242 7.36103 2.32072C7.36535 1.91922 7.5257 1.53582 7.80693 1.25472C8.08816 0.973516 8.4673 0.817518 8.86123 0.820818ZM6.58351 22.2539L1.86113 22.2539C1.58537 22.2557 1.32 22.1468 1.12242 21.9507C0.924834 21.7547 0.81093 21.4872 0.805343 21.2062L0.805342 3.73712C0.80585 3.59722 0.833711 3.45892 0.887297 3.33022C0.940883 3.20142 1.01912 3.08492 1.11743 2.98732C1.21573 2.88982 1.33214 2.81322 1.45984 2.76201C1.58753 2.71082 1.72396 2.68612 1.86113 2.68941L6.55569 2.68941C6.641 3.24232 6.91745 3.74602 7.33513 4.10941C7.75281 4.47291 8.2842 4.67221 8.8334 4.67132L20.3341 4.67132L20.3341 20.3845L8.86123 20.3845C8.32546 20.3691 7.80185 20.5488 7.38439 20.8914C6.96693 21.234 6.68298 21.7171 6.58351 22.2539ZM20.695 24.2075L8.86123 24.2075C8.47051 24.2075 8.0958 24.0493 7.81952 23.7677C7.54325 23.4861 7.38804 23.1042 7.38804 22.706C7.38804 22.3078 7.54325 21.9259 7.81952 21.6443C8.0958 21.3627 8.47051 21.2045 8.86123 21.2045L20.3889 21.2045C20.4216 21.694 20.6055 22.1604 20.9143 22.5368C21.223 22.9133 21.6408 23.1804 22.1076 23.2999C21.9772 23.5692 21.7762 23.7964 21.5269 23.9564C21.2775 24.1165 20.9896 24.2039 20.695 24.2075ZM24.1955 21.0377C24.1955 21.4432 24.0374 21.8321 23.7561 22.1189C23.4747 22.4056 23.0932 22.5667 22.6953 22.5667C22.2974 22.5667 21.9158 22.4056 21.6345 22.1189C21.3531 21.8321 21.1951 21.4432 21.1951 21.0377L21.1951 4.16171C21.1951 3.75611 21.3531 3.36721 21.6345 3.08051C21.9158 2.79372 22.2974 2.63262 22.6953 2.63262C23.0932 2.63262 23.4747 2.79372 23.7561 3.08051C24.0374 3.36721 24.1955 3.75611 24.1955 4.16171L24.1955 21.0377Z" fill="#FF0000"/>
</svg>
