<svg width="4473" height="4620" viewBox="0 0 4473 4620" fill="none" xmlns="http://www.w3.org/2000/svg">
<g clip-path="url(#clip0_9_1068)">
<path d="M533.188 2964.14L372.669 2967.17L291.381 2968.36C264.213 2968.9 236.936 2968.79 209.66 2969.01H204.897V2964.14L204.356 2827.43V2822.02H209.768L371.586 2822.67C425.49 2822.78 479.501 2823.86 533.404 2824.4H536.435V2827.33C536.219 2850.49 535.461 2873.54 535.028 2896.38L533.188 2964.14ZM533.188 2964.14L531.673 2895.08C531.131 2872.35 530.482 2849.73 530.266 2827.33L533.188 2830.25C479.285 2830.79 425.273 2831.98 371.37 2831.98L209.552 2832.63L214.964 2827.22L214.422 2963.92L209.552 2959.05C236.287 2959.27 262.914 2959.16 289.649 2959.7L370.071 2960.89L533.188 2964.14Z" fill="#EBEBEB"/>
<path d="M352.753 3136.57L192.233 3139.6L110.946 3140.79C83.7774 3141.33 56.501 3141.22 29.2246 3141.44H24.4621V3136.57L23.9209 2999.86V2994.45H29.3329L191.151 2995.1C245.054 2995.2 299.066 2996.29 352.969 2996.83H356V2999.75C355.783 3022.91 355.026 3045.97 354.593 3068.81L352.753 3136.57ZM352.753 3136.57L351.237 3067.51C350.696 3044.78 350.047 3022.16 349.83 2999.75L352.753 3002.67C298.849 3003.21 244.838 3004.41 190.935 3004.41L29.1164 3005.05L34.5284 2999.64L33.9872 3136.35L29.1164 3131.48C55.8516 3131.7 82.4785 3131.59 109.214 3132.02L189.636 3133.21L352.753 3136.57Z" fill="#EBEBEB"/>
<path d="M352.753 177.729L192.125 180.76L110.837 181.951C83.6691 182.492 56.3927 182.384 29.1163 182.6H24.3538V177.729L23.7043 41.0228V35.6108H29.1163L190.934 36.2603C244.838 36.3685 298.849 37.4509 352.753 37.9921H355.783V40.9146C355.567 64.0778 354.809 87.1329 354.376 109.971L352.753 177.729ZM352.753 177.729L351.237 108.673C350.696 85.9422 350.047 63.3202 349.83 40.9146L352.753 43.837C298.849 44.3782 244.838 45.5689 190.934 45.5689L29.1163 46.4348L34.5283 41.0228L33.8789 177.729L29.0081 172.859C55.7433 173.075 82.3702 172.967 109.105 173.4L189.527 174.59L352.753 177.729Z" fill="#EBEBEB"/>
<path d="M4443.88 177.729L4283.36 180.76L4201.97 181.951C4174.8 182.492 4147.52 182.384 4120.25 182.6H4115.48V177.729L4114.94 41.0228V35.6108H4120.36L4282.17 36.2603C4336.08 36.3685 4390.09 37.4509 4443.99 37.9921H4447.02V40.9146C4446.81 64.0778 4446.05 87.1329 4445.62 109.971L4443.88 177.729ZM4443.88 177.729L4442.37 108.673C4441.83 85.9422 4441.18 63.3202 4440.96 40.9146L4443.88 43.837C4389.98 44.3782 4335.97 45.5689 4282.06 45.5689L4120.25 46.2183L4125.66 40.8063L4125.12 177.513L4120.25 172.642C4146.98 172.859 4173.61 172.75 4200.34 173.183L4280.77 174.374L4443.88 177.729Z" fill="#EBEBEB"/>
<path d="M4263.45 350.155L4102.93 353.186L4021.64 354.376C3994.47 354.918 3967.2 354.809 3939.92 354.918H3935.16V350.047L3934.62 213.34V207.928H3940.03L4101.85 208.578C4155.75 208.578 4209.76 209.768 4263.66 210.31H4266.7V213.232C4266.48 236.395 4265.72 259.45 4265.29 282.289L4263.45 350.155ZM4263.45 350.155L4261.93 281.098C4261.39 258.368 4260.74 235.746 4260.53 213.34L4263.45 216.263C4209.54 216.804 4155.53 217.995 4101.63 217.995L3939.81 218.644L3945.22 213.232L3944.68 349.939L3939.81 345.068C3966.55 345.284 3993.17 345.176 4019.91 345.717L4100.33 346.908L4263.45 350.155Z" fill="#EBEBEB"/>
<path d="M3434.66 1949.83L3274.14 1952.86L3192.74 1954.05C3165.57 1954.59 3138.3 1954.48 3111.02 1954.59H3106.26V1949.72L3105.72 1813.01V1807.6H3111.13L3272.95 1808.25C3326.85 1808.36 3380.86 1809.44 3434.77 1809.98H3437.8V1812.9C3437.58 1836.07 3436.82 1859.12 3436.39 1881.96L3434.66 1949.83ZM3434.66 1949.83L3433.14 1880.77C3432.6 1858.04 3431.95 1835.42 3431.74 1813.01L3434.66 1815.94C3380.75 1816.48 3326.74 1817.67 3272.84 1817.67L3111.02 1818.32L3116.43 1812.9L3115.89 1949.61L3111.02 1944.74C3137.76 1944.96 3164.38 1944.85 3191.12 1945.28L3271.54 1946.47L3434.66 1949.83Z" fill="#EBEBEB"/>
<path d="M3254.11 2122.25L3093.59 2125.28L3012.31 2126.47C2985.14 2127.02 2957.86 2126.91 2930.59 2127.12H2925.82V2122.25L2925.28 1985.55V1980.13H2930.69L3092.51 1980.78C3146.42 1980.89 3200.43 1981.97 3254.33 1982.52H3257.36V1985.44C3257.14 2008.6 3256.39 2031.66 3255.95 2054.5L3254.11 2122.25ZM3254.11 2122.25L3252.6 2053.2C3252.06 2030.47 3251.41 2007.84 3251.19 1985.44L3254.11 1988.36C3200.21 1988.9 3146.2 1990.09 3092.3 1990.09L2930.48 1990.74L2935.89 1985.33L2935.35 2122.04L2930.48 2117.17C2957.21 2117.38 2983.84 2117.27 3010.58 2117.82L3091 2119.01L3254.11 2122.25Z" fill="#EBEBEB"/>
<path d="M3074.33 1949.83L2913.81 1952.86L2832.41 1954.05C2805.24 1954.59 2777.97 1954.48 2750.69 1954.59H2745.93V1949.72L2745.39 1813.01V1807.6H2750.8L2912.62 1808.25C2966.52 1808.36 3020.53 1809.44 3074.44 1809.98H3077.47V1812.9C3077.25 1836.07 3076.49 1859.12 3076.06 1881.96L3074.33 1949.83ZM3074.33 1949.83L3072.81 1880.77C3072.38 1858.04 3071.62 1835.42 3071.41 1813.01L3074.33 1815.94C3020.42 1816.48 2966.41 1817.67 2912.51 1817.67L2750.69 1818.32L2756.1 1812.9L2755.56 1949.61L2750.69 1944.74C2777.43 1944.96 2804.05 1944.85 2830.79 1945.28L2911.21 1946.47L3074.33 1949.83Z" fill="#EBEBEB"/>
<path d="M4443.88 3136.57L4283.36 3139.6L4201.97 3140.79C4174.8 3141.33 4147.52 3141.22 4120.25 3141.44H4115.48V3136.57L4114.94 2999.86V2994.45H4120.36L4282.17 2995.1C4336.08 2995.2 4390.09 2996.29 4443.99 2996.83H4447.02V2999.75C4446.81 3022.91 4446.05 3045.97 4445.62 3068.81L4443.88 3136.57ZM4443.88 3136.57L4442.37 3067.51C4441.83 3044.78 4441.18 3022.16 4440.96 2999.75L4443.88 3002.67C4389.98 3003.21 4335.97 3004.41 4282.06 3004.41L4120.25 3005.05L4125.66 2999.64L4125.12 3136.35L4120.25 3131.48C4146.98 3131.7 4173.61 3131.59 4200.34 3132.02L4280.77 3133.21L4443.88 3136.57Z" fill="#EBEBEB"/>
<path d="M1694.49 584.385L1533.97 587.416L1452.68 588.607C1425.52 589.148 1398.24 589.04 1370.96 589.256H1366.2V584.385L1365.66 447.679V442.267H1371.07L1532.89 442.916C1586.79 443.024 1640.8 444.107 1694.71 444.648H1697.74V447.571C1697.52 470.734 1696.76 493.789 1696.33 516.627L1694.49 584.385ZM1694.49 584.385L1692.97 515.329C1692.43 492.598 1691.78 469.976 1691.57 447.571L1694.49 450.493C1640.59 451.034 1586.58 452.225 1532.67 452.225L1370.85 452.874L1376.27 447.462L1375.72 584.169L1370.85 579.298C1397.59 579.515 1424.22 579.406 1450.95 579.948L1531.37 581.138L1694.49 584.385Z" fill="#EBEBEB"/>
<path d="M4111.48 1490.24L4175.23 1387.52L4143.74 1368.04C4134.53 1362.3 4129.45 1351.8 4130.42 1340.98C4130.96 1335.03 4131.18 1328.97 4130.96 1322.9C4130.75 1312.08 4136.38 1301.91 4146.01 1296.82L4178.59 1279.28L4121.44 1172.67L4088.86 1190.2C4079.33 1195.29 4067.75 1194.42 4058.88 1188.25C4053.9 1184.79 4048.81 1181.65 4043.51 1178.73C4033.98 1173.53 4028.03 1163.58 4028.35 1152.64L4029.54 1115.63L3908.75 1111.84L3907.66 1148.96C3907.34 1159.9 3900.63 1169.31 3890.78 1173.97C3888.07 1175.27 3885.48 1176.56 3882.88 1177.97C3880.28 1179.38 3877.68 1180.89 3875.19 1182.41C3865.88 1188.04 3854.41 1188.36 3845.21 1182.63L3813.5 1163.03L3749.74 1265.75L3781.24 1285.34C3790.44 1291.08 3795.53 1301.58 3794.55 1312.4C3794.01 1318.36 3793.8 1324.42 3794.01 1330.37C3794.23 1341.2 3788.6 1351.26 3778.97 1356.46L3746.39 1373.99L3803.54 1480.61L3836.12 1463.07C3845.64 1457.99 3857.23 1458.85 3866.1 1465.02C3871.08 1468.49 3876.17 1471.62 3881.47 1474.44C3891 1479.63 3896.95 1489.59 3896.62 1500.52L3895.43 1537.65L4016.23 1541.44L4017.42 1504.31C4017.74 1493.49 4024.46 1484.07 4034.2 1479.42C4036.9 1478.12 4039.5 1476.82 4042.21 1475.41C4044.8 1474.01 4047.4 1472.49 4049.89 1470.98C4059.2 1465.35 4070.78 1465.02 4080.09 1470.76L4111.48 1490.24ZM4009.19 1413.93C3961.03 1439.8 3901.06 1421.73 3875.19 1373.45C3849.32 1325.29 3867.4 1265.21 3915.57 1239.34C3963.73 1213.47 4023.81 1231.66 4049.68 1279.82C4075.54 1328.1 4057.36 1388.06 4009.19 1413.93Z" fill="#EBEBEB"/>
<path d="M629.521 2654.25L693.274 2551.53L661.777 2532.05C652.576 2526.31 647.489 2515.81 648.463 2504.99C649.004 2499.03 649.221 2492.97 649.004 2486.91C648.788 2476.09 654.416 2465.91 664.05 2460.83L696.63 2443.29L639.479 2336.68L606.899 2354.21C597.374 2359.3 585.792 2358.43 576.917 2352.26C571.938 2348.8 566.851 2345.66 561.547 2342.74C552.022 2337.54 546.069 2327.58 546.393 2316.65L547.584 2279.63L426.789 2275.84L425.706 2312.97C425.381 2323.9 418.671 2333.32 408.821 2337.97C406.115 2339.27 403.517 2340.57 400.919 2341.98C398.322 2343.39 395.724 2344.9 393.234 2346.42C383.926 2352.05 372.452 2352.37 363.252 2346.63L331.538 2327.04L267.785 2429.76L299.282 2449.35C308.483 2455.09 313.57 2465.59 312.596 2476.41C312.055 2482.37 311.838 2488.43 312.055 2494.38C312.271 2505.2 306.643 2515.27 297.009 2520.47L264.429 2538L321.58 2644.62L354.16 2627.08C363.685 2622 375.267 2622.86 384.142 2629.03C389.121 2632.49 394.208 2635.63 399.512 2638.45C409.037 2643.64 414.99 2653.6 414.666 2664.53L413.475 2701.66L534.27 2705.45L535.461 2668.32C535.786 2657.5 542.497 2648.08 552.238 2643.43C554.944 2642.13 557.542 2640.83 560.248 2639.42C562.846 2638.01 565.443 2636.5 567.933 2634.98C577.242 2629.36 588.823 2629.03 598.132 2634.77L629.521 2654.25ZM527.127 2577.94C478.96 2603.81 418.995 2585.73 393.126 2537.46C367.257 2489.29 385.333 2429.22 433.499 2403.35C481.666 2377.48 541.739 2395.67 567.608 2443.83C593.586 2492.11 575.401 2552.07 527.127 2577.94Z" fill="#EBEBEB"/>
<path d="M1867.02 686.672L1824.7 613.285L1802.3 626.274C1795.69 630.062 1787.58 629.738 1781.19 625.516C1777.62 623.243 1774.05 621.079 1770.26 619.13C1763.44 615.667 1759.11 608.847 1759.11 601.271V575.293H1674.36V601.271C1674.36 608.847 1670.03 615.667 1663.21 619.13C1659.42 621.079 1655.74 623.135 1652.28 625.516C1645.89 629.629 1637.77 630.062 1631.17 626.274L1608.76 613.285L1566.44 686.672L1588.96 699.66C1595.56 703.449 1599.24 710.701 1598.81 718.386C1598.7 720.442 1598.7 722.499 1598.7 724.664C1598.7 726.72 1598.7 728.777 1598.81 730.942C1599.24 738.518 1595.56 745.77 1588.96 749.559L1566.33 762.656L1608.66 836.042L1631.17 823.054C1637.77 819.265 1645.89 819.59 1652.28 823.811C1655.74 826.084 1659.42 828.249 1663.21 830.089C1670.03 833.553 1674.36 840.372 1674.36 847.949V873.926H1759.11V847.949C1759.11 840.372 1763.44 833.553 1770.26 830.089C1774.05 828.141 1777.62 826.084 1781.19 823.811C1787.58 819.59 1795.69 819.265 1802.3 823.054L1824.81 836.042L1867.13 762.656L1844.62 749.667C1838.02 745.879 1834.44 738.627 1834.77 731.05C1834.88 728.993 1834.88 726.829 1834.88 724.772C1834.88 722.715 1834.88 720.659 1834.77 718.494C1834.34 710.917 1838.02 703.665 1844.62 699.769L1867.02 686.672ZM1786.06 724.664C1786.06 762.981 1755 794.045 1716.68 794.045C1678.36 794.045 1647.3 762.981 1647.3 724.664C1647.3 686.347 1678.36 655.282 1716.68 655.282C1755.1 655.174 1786.06 686.347 1786.06 724.664Z" fill="#EBEBEB"/>
<path d="M492.057 2820.18C350.588 2958.62 326.884 3172.93 356.649 3360.51C357.407 3364.73 364.01 3363.65 364.01 3359.65C364.01 3316.89 362.711 3274.57 362.819 3232.36C363.577 3230.41 364.226 3228.57 364.984 3226.73C401.894 3199.89 435.881 3169.58 456.879 3128.01C480.475 3081.58 489.784 3029.19 507.86 2980.59C509.484 2975.94 504.613 2977.35 501.366 2979.73C415.315 3043.16 387.931 3111.45 363.252 3202.7C364.443 3155.29 368.015 3107.99 378.189 3060.58C396.806 2973.99 433.608 2888.16 495.737 2823.86C498.118 2821.37 494.547 2817.69 492.057 2820.18Z" fill="#263238"/>
<path d="M518.684 2836.31C543.038 2837.18 558.3 2876.03 577.241 2887.4C587.308 2893.46 597.049 2893.03 604.085 2883.18C622.919 2856.98 597.049 2824.62 572.804 2806.44C590.122 2813.58 604.518 2826.13 623.243 2829.6C634.608 2831.66 643.376 2827.43 645.974 2815.96C654.2 2780.24 609.389 2764.33 578.54 2763.57C593.477 2753.18 636.232 2725.04 613.502 2711.18C590.447 2697.22 540.332 2737.59 523.988 2750.91C499.958 2770.39 471.275 2799.62 470.193 2830.14C468.785 2865.64 499.958 2843.78 518.684 2836.31Z" fill="#FFC727"/>
<path opacity="0.1" d="M518.684 2836.31C543.038 2837.18 558.3 2876.03 577.241 2887.4C587.308 2893.46 597.049 2893.03 604.085 2883.18C622.919 2856.98 597.049 2824.62 572.804 2806.44C590.122 2813.58 604.518 2826.13 623.243 2829.6C634.608 2831.66 643.376 2827.43 645.974 2815.96C654.2 2780.24 609.389 2764.33 578.54 2763.57C593.477 2753.18 636.232 2725.04 613.502 2711.18C590.447 2697.22 540.332 2737.59 523.988 2750.91C499.958 2770.39 471.275 2799.62 470.193 2830.14C468.785 2865.64 499.958 2843.78 518.684 2836.31Z" fill="black"/>
<path d="M511.648 2842.26C542.713 2828.08 602.57 2848.43 607.657 2836.74C617.94 2812.82 570.206 2796.37 544.445 2793.12C568.149 2786.74 613.718 2776.45 612.311 2753.51C610.579 2725.58 542.497 2749.61 508.076 2776.02C464.672 2809.25 464.997 2841.4 472.141 2847.89C481.882 2856.66 506.453 2844.64 511.648 2842.26Z" fill="#FFC727"/>
<path d="M169.936 2806.44C316.601 2939.46 348.423 3152.59 325.801 3341.25C325.152 3345.58 318.549 3344.6 318.441 3340.6C316.817 3297.95 316.492 3255.52 314.761 3213.42C313.895 3211.47 313.245 3209.74 312.379 3207.79C274.496 3182.35 239.426 3153.34 216.804 3112.64C191.476 3067.08 180.111 3015.12 160.303 2967.28C158.463 2962.73 163.442 2963.92 166.797 2966.2C255.229 3026.38 285.211 3093.49 313.354 3183.76C310.431 3136.46 305.019 3089.27 293.004 3042.29C271.14 2956.46 231.091 2872.14 166.472 2810.22C163.875 2807.95 167.338 2804.05 169.936 2806.44Z" fill="#263238"/>
<path d="M143.959 2823.54C119.713 2825.27 105.858 2864.78 87.3494 2876.79C77.6078 2883.18 67.758 2883.18 60.3977 2873.54C40.5899 2848 65.1603 2814.77 88.6482 2795.72C71.5464 2803.51 57.6917 2816.61 39.1828 2820.83C27.9259 2823.32 18.942 2819.42 15.9113 2808.06C6.27794 2772.66 50.5479 2755.02 81.288 2753.07C66.0262 2743.22 22.1892 2716.7 44.3783 2701.98C66.8921 2687.16 118.522 2725.58 135.408 2738.24C160.195 2756.86 189.96 2784.9 192.234 2815.31C194.939 2851.03 163.009 2830.36 143.959 2823.54Z" fill="#FFC727"/>
<path opacity="0.1" d="M143.959 2823.54C119.713 2825.27 105.858 2864.78 87.3494 2876.79C77.6078 2883.18 67.758 2883.18 60.3977 2873.54C40.5899 2848 65.1603 2814.77 88.6482 2795.72C71.5464 2803.51 57.6917 2816.61 39.1828 2820.83C27.9259 2823.32 18.942 2819.42 15.9113 2808.06C6.27794 2772.66 50.5479 2755.02 81.288 2753.07C66.0262 2743.22 22.1892 2716.7 44.3783 2701.98C66.8921 2687.16 118.522 2725.58 135.408 2738.24C160.195 2756.86 189.96 2784.9 192.234 2815.31C194.939 2851.03 163.009 2830.36 143.959 2823.54Z" fill="black"/>
<path d="M151.211 2829.27C119.605 2816.29 60.6143 2838.91 55.0941 2827.33C43.8371 2803.73 91.0296 2785.54 116.682 2781.32C92.7614 2775.8 46.8678 2767.25 47.409 2744.31C48.0585 2716.27 117.007 2737.7 152.401 2762.81C196.996 2794.42 197.97 2826.57 191.043 2833.28C181.518 2842.59 156.406 2831.44 151.211 2829.27Z" fill="#FFC727"/>
<path d="M319.848 3157.67C330.672 3227.81 344.094 3300.22 365.417 3367.98C367.473 3374.15 376.566 3372.53 375.7 3365.93C366.066 3301.09 348.531 3237.55 338.898 3172.72C329.157 3107.12 323.853 3040.67 327.641 2974.31C333.811 2865.1 363.469 2748.96 434.69 2663.45C436.206 2661.39 432.958 2658.58 431.335 2660.42C288.675 2826.78 311.405 3030.71 311.514 3049C291.273 2980.16 270.491 2901.14 194.074 2831.11C190.826 2828.08 188.229 2829.49 188.77 2834.69C202.408 2962.41 237.911 3029.08 311.947 3097.38C314.003 3117.62 316.601 3137.76 319.848 3157.67Z" fill="#263238"/>
<path d="M435.881 2682.61C461.534 2671.24 496.928 2703.93 522.364 2706.1C535.786 2707.29 545.744 2701.98 548.125 2688.24C554.403 2651.54 511.432 2630.98 477.12 2624.38C498.66 2623.08 519.875 2628.81 541.09 2623.08C553.862 2619.51 560.897 2610.74 557.867 2597.42C548.45 2556.19 493.897 2562.25 461.534 2576.97C471.816 2558.67 502.015 2507.91 471.383 2504.99C440.535 2502.17 408.713 2569.17 398.43 2591.25C383.276 2623.62 368.231 2668.32 382.41 2700.58C398.971 2738.24 420.294 2699.82 435.881 2682.61Z" fill="#FFC727"/>
<path opacity="0.1" d="M435.881 2682.61C461.534 2671.24 496.928 2703.93 522.364 2706.1C535.786 2707.29 545.744 2701.98 548.125 2688.24C554.403 2651.54 511.432 2630.98 477.12 2624.38C498.66 2623.08 519.875 2628.81 541.09 2623.08C553.862 2619.51 560.897 2610.74 557.867 2597.42C548.45 2556.19 493.897 2562.25 461.534 2576.97C471.816 2558.67 502.015 2507.91 471.383 2504.99C440.535 2502.17 408.713 2569.17 398.43 2591.25C383.276 2623.62 368.231 2668.32 382.41 2700.58C398.971 2738.24 420.294 2699.82 435.881 2682.61Z" fill="black"/>
<path d="M431.66 2692.46C456.771 2662.15 529.075 2653.17 528.426 2638.34C527.019 2608.25 469.219 2615.28 440.86 2624.92C462.291 2606.3 504.288 2572.75 491.299 2549.69C475.497 2521.55 416.939 2580.76 394.425 2625.46C366.175 2681.85 382.627 2714.97 393.234 2718.11C408.063 2722.33 427.438 2697.44 431.66 2692.46Z" fill="#FFC727"/>
<path d="M226.004 3196.1L163.117 3676.9H545.961C538.059 3634.25 466.837 3195.56 466.837 3195.56L226.004 3196.1Z" fill="#FFC727"/>
<path d="M0 3678.52L559.166 3675.92L1118.22 3674.95L2236.55 3673.11L3354.78 3674.95L3913.94 3675.82L4473 3678.52L3913.94 3681.12L3354.78 3682.09L2236.55 3683.93L1118.22 3682.09L559.166 3681.12L0 3678.52Z" fill="#263238"/>
<path d="M2236.55 4619.99C3127.62 4619.99 3849.97 4517.83 3849.97 4391.82C3849.97 4265.81 3127.62 4163.65 2236.55 4163.65C1345.49 4163.65 623.135 4265.81 623.135 4391.82C623.135 4517.83 1345.49 4619.99 2236.55 4619.99Z" fill="#EBEBEB"/>
<path d="M1319.61 1459.69C1271.75 1459.69 1228.22 1449.18 1189.25 1428.16C1150.28 1407.14 1116.77 1379.2 1088.97 1344.35C1060.94 1309.49 1039.29 1269.76 1024.02 1224.64C1008.75 1179.79 1001 1133.91 1001 1087C1001 1038.04 1009.2 991.134 1025.39 946.278C1041.57 901.422 1064.13 861.692 1092.62 827.088C1121.1 792.485 1155.06 765.059 1194.26 744.809C1233.46 724.56 1276.31 714.307 1322.34 714.307C1369.52 714.307 1412.82 725.072 1451.79 746.86C1490.76 768.647 1524.03 797.099 1551.61 832.215C1579.19 867.331 1600.61 907.573 1616.11 952.43C1631.38 997.286 1639.13 1042.91 1639.13 1089.05C1639.13 1138.01 1631.15 1184.91 1615.2 1229.26C1599.24 1273.86 1577.14 1313.07 1548.88 1347.16C1520.62 1381.26 1486.89 1408.68 1447.69 1428.93C1408.26 1449.44 1365.64 1459.69 1319.61 1459.69ZM1129.99 1086.74C1129.99 1118.53 1134.32 1149.28 1142.98 1179.02C1151.64 1208.75 1163.95 1234.9 1180.36 1257.71C1196.54 1280.52 1216.6 1298.72 1240.3 1312.56C1264 1326.4 1290.66 1333.32 1320.75 1333.32C1351.51 1333.32 1378.63 1326.15 1402.11 1312.05C1425.81 1297.95 1445.64 1278.98 1462.05 1255.66C1478.23 1232.08 1490.53 1205.68 1498.97 1176.45C1507.17 1147.23 1511.5 1117.24 1511.5 1087C1511.5 1055.21 1506.94 1024.46 1498.05 994.723C1489.17 964.989 1476.63 938.845 1460.22 916.032C1444.04 893.219 1423.99 875.02 1400.28 861.692C1376.58 848.363 1350.15 841.442 1320.75 841.442C1289.98 841.442 1262.86 848.619 1238.7 862.717C1214.77 876.815 1194.72 895.526 1178.76 918.595C1162.81 941.664 1150.73 968.065 1142.3 997.286C1134.09 1026.51 1129.99 1056.5 1129.99 1086.74Z" fill="#263238"/>
<path d="M1947.48 1464.82C1908.28 1464.82 1872.95 1457.13 1841.5 1442C1810.28 1426.88 1783.62 1406.38 1761.96 1380.49C1740.09 1354.6 1723.45 1324.86 1711.83 1291.03C1700.2 1257.2 1694.28 1221.57 1694.28 1184.4C1694.28 1146.46 1700.2 1110.58 1711.83 1076.75C1723.45 1042.91 1740.31 1013.18 1761.96 987.289C1783.84 961.401 1810.28 940.895 1841.5 925.772C1872.72 910.649 1908.05 902.959 1947.48 902.959C1986.68 902.959 2022 910.649 2053 925.772C2083.99 940.895 2110.43 961.401 2132.08 987.289C2153.96 1013.18 2170.59 1042.91 2182.22 1076.75C2193.84 1110.58 2199.76 1146.46 2199.76 1184.4C2199.76 1221.57 2193.84 1257.2 2182.22 1291.03C2170.59 1324.86 2153.96 1354.6 2132.53 1380.49C2111.11 1406.38 2084.67 1426.88 2053.45 1442C2022 1457.13 1986.68 1464.82 1947.48 1464.82ZM1821.45 1184.14C1821.45 1208.24 1824.64 1230.28 1831.02 1250.02C1837.4 1269.76 1846.29 1286.67 1857.68 1301.28C1869.08 1315.89 1882.3 1326.92 1897.79 1334.86C1913.06 1342.81 1929.7 1346.65 1947.48 1346.65C1965.25 1346.65 1981.89 1342.81 1997.16 1334.86C2012.43 1326.92 2025.87 1315.64 2037.27 1301.28C2048.66 1286.67 2057.55 1269.5 2063.93 1249.51C2070.32 1229.51 2073.51 1207.47 2073.51 1183.12C2073.51 1159.79 2070.32 1138.01 2063.93 1118.01C2057.55 1098.02 2048.66 1080.85 2037.27 1066.24C2025.87 1051.63 2012.66 1040.6 1997.16 1032.66C1981.89 1024.71 1965.25 1020.87 1947.48 1020.87C1929.7 1020.87 1913.06 1024.97 1897.79 1033.17C1882.52 1041.37 1869.08 1052.91 1857.68 1067.26C1846.29 1081.87 1837.4 1099.05 1831.02 1119.04C1824.64 1139.03 1821.45 1160.82 1821.45 1184.14Z" fill="#263238"/>
<path d="M2571.7 1464.82C2533.64 1464.82 2500.59 1455.33 2472.33 1436.36C2444.07 1417.4 2421.97 1391.76 2406.01 1359.21V1675H2282.72V911.931H2390.52V1005.23C2408.29 973.448 2431.31 948.585 2459.57 930.13C2487.83 911.931 2520.42 902.703 2557.11 902.703C2589.7 902.703 2619.79 910.137 2647.36 925.003C2674.94 939.87 2698.87 959.863 2718.7 984.983C2738.75 1010.1 2754.25 1039.84 2765.64 1073.93C2777.04 1108.02 2782.74 1144.16 2782.74 1182.09C2782.74 1221.31 2777.49 1258.48 2767.01 1292.82C2756.53 1327.43 2741.94 1357.42 2723.25 1382.79C2704.57 1408.43 2682.23 1428.42 2656.48 1442.77C2630.73 1457.64 2602.47 1464.82 2571.7 1464.82ZM2530.22 1346.65C2548.68 1346.65 2565.55 1342.29 2581.27 1333.07C2597 1324.1 2610.21 1312.05 2621.38 1296.93C2632.32 1281.8 2640.98 1264.12 2647.14 1244.12C2653.29 1224.13 2656.25 1203.37 2656.25 1182.09C2656.25 1159.28 2652.83 1138.01 2646.22 1118.53C2639.39 1098.79 2630.04 1081.87 2618.19 1067.26C2606.11 1052.65 2592.21 1041.37 2575.8 1033.17C2559.62 1024.97 2541.84 1020.87 2522.93 1020.87C2511.31 1020.87 2499.23 1023.17 2486.92 1027.53C2474.61 1032.15 2463.22 1038.3 2452.73 1046.76C2442.25 1054.96 2432.91 1064.7 2424.7 1075.72C2416.5 1086.74 2410.12 1098.79 2405.79 1111.86V1239.25C2416.95 1270.27 2433.82 1296.16 2456.38 1316.41C2479.4 1336.66 2503.78 1346.65 2530.22 1346.65Z" fill="#263238"/>
<path d="M3048.47 1464.82C3007.9 1464.82 2968.48 1457.64 2929.73 1443.03C2890.99 1428.42 2857.94 1407.91 2830.37 1381L2876.4 1294.11C2905.8 1317.69 2934.52 1335.37 2962.55 1347.42C2990.58 1359.47 3018.16 1365.62 3045.96 1365.62C3070.58 1365.62 3089.72 1360.49 3103.85 1349.98C3117.98 1339.73 3125.05 1324.86 3125.05 1305.38C3125.05 1286.16 3116.84 1271.81 3100.2 1262.84C3083.57 1253.86 3056.67 1243.61 3019.3 1231.82C2988.08 1222.08 2961.41 1212.85 2939.3 1203.88C2917.2 1194.91 2899.42 1184.66 2885.98 1173.38C2872.53 1162.1 2862.73 1148.77 2856.58 1134.16C2850.42 1119.29 2847.46 1101.61 2847.46 1080.85C2847.46 1053.16 2852.25 1028.3 2861.82 1006.26C2871.39 984.214 2884.61 965.246 2901.93 949.866C2919.02 934.231 2939.31 922.44 2962.32 914.238C2985.34 906.035 3010.41 901.934 3037.3 901.934C3073.54 901.934 3107.5 907.83 3138.95 919.621C3170.63 931.411 3199.57 950.379 3226.01 976.524L3176.32 1060.34C3151.71 1039.58 3128.01 1024.46 3104.99 1014.72C3081.97 1004.98 3059.18 1000.11 3036.39 1000.11C3015.42 1000.11 2998.1 1004.98 2983.97 1014.72C2969.84 1024.46 2962.78 1039.84 2962.78 1061.37C2962.78 1071.11 2964.37 1079.05 2967.79 1085.2C2971.21 1091.36 2976.45 1097 2983.97 1101.87C2991.27 1106.74 3001.07 1111.35 3012.92 1115.96C3025 1120.58 3039.81 1125.19 3057.59 1130.06C3090.63 1139.8 3119.12 1149.28 3142.82 1159.02C3166.52 1168.77 3185.67 1179.79 3200.71 1192.09C3215.75 1204.39 3226.69 1218.75 3233.98 1235.15C3241.05 1251.3 3244.47 1270.78 3244.47 1293.59C3244.47 1346.65 3226.92 1388.69 3192.05 1419.45C3156.27 1449.44 3108.64 1464.82 3048.47 1464.82Z" fill="#263238"/>
<path d="M3347.7 1177.99V712H3471V1177.99H3347.7ZM3347.7 1454.31V1297.95H3471V1454.31H3347.7Z" fill="#263238"/>
<path d="M2459.42 2928.42H2075.06V2959.92H2459.42V2928.42Z" fill="#37474F"/>
<path d="M2459.42 2969.44H2075.06V3000.94H2459.42V2969.44Z" fill="#37474F"/>
<path d="M2459.42 3010.47H2075.06V3041.96H2459.42V3010.47Z" fill="#37474F"/>
<path d="M2459.42 3051.49H2075.06V3082.99H2459.42V3051.49Z" fill="#37474F"/>
<path d="M2459.42 3092.51H2075.06V3124.01H2459.42V3092.51Z" fill="#37474F"/>
<path d="M2625.89 3910.7H1895.06V3942.19H2625.89V3910.7Z" fill="#37474F"/>
<path d="M2625.89 3951.72H1895.06V3983.22H2625.89V3951.72Z" fill="#37474F"/>
<path d="M2625.89 3992.74H1895.06V4024.24H2625.89V3992.74Z" fill="#37474F"/>
<path d="M2625.89 4033.76H1895.06V4065.26H2625.89V4033.76Z" fill="#37474F"/>
<path d="M2625.89 4074.79H1895.06V4106.28H2625.89V4074.79Z" fill="#37474F"/>
<path d="M1574.45 2668.11C1574.78 2663.88 1414.47 2610.2 1414.47 2610.2L1423.89 2059.37L1636.47 2013.8L1574.45 2668.11Z" fill="#FFC727"/>
<path opacity="0.2" d="M1574.45 2668.11C1574.78 2663.88 1414.47 2610.2 1414.47 2610.2L1423.89 2059.37L1636.47 2013.8L1574.45 2668.11Z" fill="black"/>
<path d="M3042.83 2884.37C3043.91 2880.25 3212.98 2885.02 3212.98 2885.02L3393.63 2364.6L3209.74 2248.68L3042.83 2884.37Z" fill="#FFC727"/>
<path opacity="0.2" d="M3042.83 2884.37C3043.91 2880.25 3212.98 2885.02 3212.98 2885.02L3393.63 2364.6L3209.74 2248.68L3042.83 2884.37Z" fill="black"/>
<path d="M1543.6 2870.95C1543.6 2870.95 1603.03 1980.13 1655.2 1687.13C1655.2 1687.13 2731.32 1768.53 3312.24 1990.53C3312.24 1990.53 3012.74 3031.03 2997.26 3082.66C2997.15 3082.66 2239.37 2933.4 1543.6 2870.95Z" fill="#FFC727"/>
<path opacity="0.1" d="M2504.12 1806.09C2486.59 1913.35 2468.94 2020.62 2450.65 2127.67L2395.23 2448.92L2392.2 2444.37L2752.75 2529.99L2932.86 2573.61L3112.75 2618.1L2931.88 2577.62L2751.23 2536.27L2390.36 2451.95L2386.68 2451.08L2387.33 2447.4L2444.81 2126.47C2464.07 2019.75 2483.99 1912.92 2504.12 1806.09Z" fill="black"/>
<path opacity="0.1" d="M2464.51 1867.24C2464.72 1877.09 2456.82 1887.16 2445.56 1888.13C2440.15 1888.67 2434.2 1886.94 2429.76 1883.04C2425.32 1879.15 2422.62 1873.19 2422.62 1867.24C2422.62 1861.18 2425.32 1855.23 2429.76 1851.44C2434.2 1847.54 2440.15 1845.81 2445.56 1846.35C2456.93 1847.32 2464.72 1857.39 2464.51 1867.24ZM2464.51 1867.24C2464.51 1862.26 2462.23 1857.39 2458.55 1854.25C2454.87 1851.11 2450 1849.81 2445.56 1850.36C2436.47 1851.44 2430.63 1859.56 2430.74 1867.24C2430.63 1874.93 2436.47 1883.04 2445.56 1884.13C2450 1884.67 2454.87 1883.37 2458.55 1880.23C2462.34 1877.09 2464.51 1872.22 2464.51 1867.24Z" fill="black"/>
<path opacity="0.1" d="M2445.67 1999.73C2445.89 2009.58 2437.99 2019.64 2426.73 2020.62C2421.32 2021.16 2415.37 2019.43 2410.93 2015.53C2406.49 2011.63 2403.78 2005.68 2403.78 1999.73C2403.78 1993.66 2406.49 1987.71 2410.93 1983.92C2415.37 1980.03 2421.32 1978.29 2426.73 1978.84C2437.99 1979.81 2445.89 1989.98 2445.67 1999.73ZM2445.67 1999.73C2445.67 1994.75 2443.4 1989.88 2439.72 1986.74C2436.04 1983.6 2431.17 1982.3 2426.73 1982.84C2417.64 1983.92 2411.79 1992.04 2411.9 1999.73C2411.79 2007.41 2417.64 2015.53 2426.73 2016.61C2431.17 2017.15 2436.04 2015.85 2439.72 2012.71C2443.4 2009.58 2445.56 2004.7 2445.67 1999.73Z" fill="black"/>
<path opacity="0.1" d="M2422.4 2139.79C2422.62 2149.64 2414.72 2159.7 2403.46 2160.68C2398.05 2161.22 2392.09 2159.49 2387.66 2155.59C2383.22 2151.69 2380.51 2145.74 2380.51 2139.79C2380.51 2133.83 2383.22 2127.77 2387.66 2123.98C2392.09 2120.09 2398.05 2118.36 2403.46 2118.9C2414.72 2119.87 2422.62 2130.05 2422.4 2139.79ZM2422.4 2139.79C2422.4 2134.81 2420.13 2129.94 2416.45 2126.8C2412.77 2123.66 2407.9 2122.36 2403.46 2122.9C2394.37 2123.98 2388.52 2132.1 2388.63 2139.79C2388.52 2147.47 2394.37 2155.59 2403.46 2156.67C2407.9 2157.21 2412.77 2155.92 2416.45 2152.78C2420.13 2149.64 2422.29 2144.77 2422.4 2139.79Z" fill="black"/>
<path opacity="0.1" d="M2399.13 2279.85C2399.35 2289.7 2391.44 2299.77 2380.19 2300.74C2374.78 2301.28 2368.82 2299.55 2364.38 2295.65C2359.95 2291.76 2357.24 2285.8 2357.24 2279.85C2357.24 2273.9 2359.95 2267.84 2364.38 2264.05C2368.82 2260.15 2374.78 2258.42 2380.19 2258.96C2391.44 2259.93 2399.35 2270 2399.13 2279.85ZM2399.13 2279.85C2399.13 2274.87 2396.86 2270 2393.18 2266.86C2389.5 2263.72 2384.63 2262.42 2380.19 2262.96C2371.1 2264.05 2365.25 2272.16 2365.36 2279.85C2365.25 2287.53 2371.1 2295.65 2380.19 2296.74C2384.63 2297.28 2389.5 2295.98 2393.18 2292.84C2396.86 2289.7 2399.02 2284.83 2399.13 2279.85Z" fill="black"/>
<path opacity="0.1" d="M2478.36 2503.26C2478.58 2513.11 2470.68 2523.17 2459.42 2524.15C2454.01 2524.69 2448.05 2522.96 2443.62 2519.06C2439.18 2515.16 2436.47 2509.21 2436.47 2503.26C2436.47 2497.19 2439.18 2491.24 2443.62 2487.45C2448.05 2483.56 2454.01 2481.82 2459.42 2482.37C2470.78 2483.23 2478.58 2493.41 2478.36 2503.26ZM2478.36 2503.26C2478.36 2498.28 2476.09 2493.41 2472.41 2490.27C2468.73 2487.13 2463.86 2485.83 2459.42 2486.37C2450.33 2487.45 2444.48 2495.57 2444.59 2503.26C2444.48 2510.94 2450.33 2519.06 2459.42 2520.14C2463.86 2520.68 2468.73 2519.38 2472.41 2516.24C2476.2 2513 2478.36 2508.13 2478.36 2503.26Z" fill="black"/>
<path opacity="0.1" d="M2610.63 2535.51C2610.85 2545.36 2602.94 2555.43 2591.69 2556.4C2586.28 2556.94 2580.32 2555.21 2575.88 2551.31C2571.45 2547.42 2568.74 2541.46 2568.74 2535.51C2568.74 2529.45 2571.45 2523.5 2575.88 2519.71C2580.32 2515.81 2586.28 2514.08 2591.69 2514.62C2602.94 2515.49 2610.74 2525.66 2610.63 2535.51ZM2610.63 2535.51C2610.63 2530.53 2608.36 2525.66 2604.68 2522.52C2601 2519.38 2596.13 2518.09 2591.69 2518.63C2582.6 2519.71 2576.75 2527.83 2576.86 2535.51C2576.75 2543.2 2582.6 2551.31 2591.69 2552.4C2596.13 2552.94 2601 2551.64 2604.68 2548.5C2608.36 2545.25 2610.52 2540.38 2610.63 2535.51Z" fill="black"/>
<path opacity="0.1" d="M2742.79 2567.77C2743.01 2577.62 2735.11 2587.68 2723.85 2588.66C2718.44 2589.2 2712.48 2587.47 2708.05 2583.57C2703.61 2579.67 2700.9 2573.72 2700.9 2567.77C2700.9 2561.71 2703.61 2555.75 2708.05 2551.96C2712.48 2548.07 2718.44 2546.34 2723.85 2546.88C2735.11 2547.74 2743.01 2557.92 2742.79 2567.77ZM2742.79 2567.77C2742.79 2562.79 2740.52 2557.92 2736.84 2554.78C2733.16 2551.64 2728.29 2550.34 2723.85 2550.88C2714.76 2551.96 2708.91 2560.08 2709.02 2567.77C2708.91 2575.45 2714.76 2583.57 2723.85 2584.65C2728.29 2585.19 2733.16 2583.89 2736.84 2580.76C2740.52 2577.51 2742.79 2572.64 2742.79 2567.77Z" fill="black"/>
<path opacity="0.1" d="M2874.95 2599.91C2875.17 2609.76 2867.27 2619.83 2856.01 2620.8C2850.6 2621.35 2844.64 2619.61 2840.21 2615.72C2835.77 2611.82 2833.06 2605.87 2833.06 2599.91C2833.06 2593.85 2835.77 2587.9 2840.21 2584.11C2844.64 2580.21 2850.6 2578.48 2856.01 2579.02C2867.37 2580 2875.17 2590.17 2874.95 2599.91ZM2874.95 2599.91C2874.95 2594.94 2872.68 2590.06 2869 2586.93C2865.32 2583.79 2860.45 2582.49 2856.01 2583.03C2846.92 2584.11 2841.07 2592.23 2841.18 2599.91C2841.07 2607.6 2846.92 2615.72 2856.01 2616.8C2860.45 2617.34 2865.32 2616.04 2869 2612.9C2872.79 2609.76 2874.95 2604.89 2874.95 2599.91Z" fill="black"/>
<path opacity="0.1" d="M3007.11 2633.68C3006.57 2643.53 2997.91 2652.95 2986.65 2653.06C2981.13 2653.17 2975.4 2651 2971.28 2646.78C2967.17 2642.56 2965.01 2636.5 2965.44 2630.44C2965.98 2624.48 2969.01 2618.75 2973.77 2615.18C2978.54 2611.6 2984.6 2610.41 2990.01 2611.28C3001.05 2613.23 3008.09 2623.84 3007.11 2633.68ZM3007.11 2633.68C3007.44 2628.71 3005.6 2623.73 3002.24 2620.26C2998.78 2616.91 2994.01 2615.18 2989.58 2615.39C2980.48 2615.72 2973.99 2623.4 2973.45 2631.09C2972.69 2638.66 2977.99 2647.32 2986.98 2649.05C2991.31 2649.92 2996.29 2648.95 3000.18 2646.13C3004.19 2643.32 3006.68 2638.56 3007.11 2633.68Z" fill="black"/>
<path opacity="0.1" d="M2375.86 2419.91C2376.07 2429.76 2368.17 2439.83 2356.92 2440.8C2351.5 2441.34 2345.55 2439.61 2341.11 2435.71C2336.68 2431.82 2333.97 2425.87 2333.97 2419.91C2333.97 2413.96 2336.68 2407.9 2341.11 2404.11C2345.55 2400.21 2351.5 2398.48 2356.92 2399.02C2368.17 2400 2376.07 2410.06 2375.86 2419.91ZM2375.86 2419.91C2375.86 2414.93 2373.59 2410.06 2369.9 2406.92C2366.22 2403.78 2361.35 2402.49 2356.92 2403.03C2347.82 2404.11 2341.98 2412.23 2342.09 2419.91C2341.98 2427.6 2347.82 2435.71 2356.92 2436.8C2361.35 2437.34 2366.22 2436.04 2369.9 2432.9C2373.59 2429.76 2375.75 2424.89 2375.86 2419.91Z" fill="black"/>
<path opacity="0.2" d="M2153.17 2651.92C2278.66 2539.09 2288.92 2345.9 2176.09 2220.41C2063.26 2094.92 1870.06 2084.66 1744.57 2197.49C1619.09 2310.32 1608.83 2503.52 1721.66 2629C1834.49 2754.49 2027.68 2764.75 2153.17 2651.92Z" fill="black"/>
<path d="M2177.96 2511.48C2225.87 2384.91 2162.1 2243.47 2035.53 2195.56C1908.96 2147.65 1767.52 2211.41 1719.61 2337.98C1671.7 2464.55 1735.46 2606 1862.03 2653.91C1988.6 2701.82 2130.05 2638.05 2177.96 2511.48Z" fill="#263238"/>
<path d="M1934.07 2334.64L1876.8 2325.37L1867.52 2382.63L1924.79 2391.91L1934.07 2334.64Z" fill="#FFC727"/>
<path d="M1886.12 2268.09L1828.85 2258.81L1819.57 2316.08L1876.84 2325.36L1886.12 2268.09Z" fill="#FFC727"/>
<path d="M2115.25 2305.2L2057.99 2295.93L2048.71 2353.2L2105.98 2362.47L2115.25 2305.2Z" fill="#FFC727"/>
<path d="M1849.22 2495.93L1791.95 2486.65L1782.67 2543.92L1839.94 2553.2L1849.22 2495.93Z" fill="#FFC727"/>
<path d="M2078.35 2533.04L2021.09 2523.77L2011.81 2581.04L2069.08 2590.31L2078.35 2533.04Z" fill="#FFC727"/>
<path d="M1915.77 2447.98L1858.5 2438.7L1849.23 2495.97L1906.5 2505.24L1915.77 2447.98Z" fill="#FFC727"/>
<path d="M1982.24 2400.57L1924.97 2391.29L1915.69 2448.56L1972.96 2457.83L1982.24 2400.57Z" fill="#FFC727"/>
<path d="M2048.68 2353.26L1991.41 2343.99L1982.14 2401.25L2039.4 2410.53L2048.68 2353.26Z" fill="#FFC727"/>
<path d="M2030.35 2466.44L1973.08 2457.17L1963.8 2514.43L2021.07 2523.71L2030.35 2466.44Z" fill="#FFC727"/>
<path d="M3005.36 2746.35C3112.31 2615.81 3093.2 2423.29 2962.67 2316.33C2832.14 2209.37 2639.61 2228.49 2532.65 2359.02C2425.7 2489.55 2444.81 2682.08 2575.34 2789.03C2705.87 2895.99 2898.4 2876.88 3005.36 2746.35Z" fill="#FFC727"/>
<path opacity="0.2" d="M3005.36 2746.35C3112.31 2615.81 3093.2 2423.29 2962.67 2316.33C2832.14 2209.37 2639.61 2228.49 2532.65 2359.02C2425.7 2489.55 2444.81 2682.08 2575.34 2789.03C2705.87 2895.99 2898.4 2876.88 3005.36 2746.35Z" fill="black"/>
<path opacity="0.2" d="M3066.32 2623.51C3064.91 2629.57 3063.29 2635.31 3061.56 2641.15L2465.91 2514.08C2467.32 2503.47 2469.27 2492.87 2471.76 2482.04C2510.72 2317.84 2675.47 2216.42 2839.77 2255.39C3003.76 2294.46 3105.28 2459.2 3066.32 2623.51Z" fill="black"/>
<path d="M2863.42 2778.97C2988.3 2726.8 3047.24 2583.27 2995.07 2458.39C2942.89 2333.51 2799.37 2274.57 2674.49 2326.75C2549.61 2378.92 2490.67 2522.45 2542.84 2647.33C2595.02 2772.2 2738.55 2831.14 2863.42 2778.97Z" fill="#263238"/>
<path d="M2830.65 2418.9L2774.2 2405.49L2707.41 2686.55L2763.86 2699.96L2830.65 2418.9Z" fill="#FFC727"/>
<path d="M3083.96 2617.77L2458.34 2469.05C2499.36 2296.3 2672.76 2189.58 2845.51 2230.6C3018.26 2271.73 3125.09 2445.02 3083.96 2617.77Z" fill="#FFC727"/>
<path opacity="0.2" d="M3083.96 2617.77L2458.34 2469.05C2499.36 2296.3 2672.76 2189.58 2845.51 2230.6C3018.26 2271.73 3125.09 2445.02 3083.96 2617.77Z" fill="black"/>
<path opacity="0.1" d="M2237.31 2734.46C2238.94 2709.99 2247.92 2685.21 2265.56 2665.62C2274.33 2655.77 2285.91 2647.97 2298.79 2643.32C2311.67 2638.56 2325.64 2637.69 2338.84 2638.88C2352.26 2640.5 2366.01 2645.16 2377.27 2653.71C2388.31 2662.37 2396.64 2673.63 2401.62 2685.86C2411.79 2710.1 2412.98 2735.97 2408.01 2760C2403.89 2735.97 2397.72 2712.7 2386.47 2693.54C2375.32 2674.27 2357.57 2662.26 2336.57 2660.42C2315.03 2657.71 2294.14 2663.56 2277.25 2677.74C2260.26 2691.92 2247.38 2712.27 2237.31 2734.46Z" fill="black"/>
<path d="M1627.27 2111.21C1629.76 2078.52 1633.44 2046.05 1636.58 2013.47C1640.05 1981 1643.62 1948.42 1647.62 1916.06C1651.41 1883.58 1655.63 1851.22 1659.75 1818.75C1663.86 1786.28 1668.51 1754.02 1672.84 1721.55L1674.03 1712.89L1682.8 1713.43C1753.26 1717.87 1823.62 1723.61 1893.87 1730.75C1929.05 1734.32 1964.11 1738.44 1999.08 1742.98C2034.04 1747.96 2069.11 1752.61 2103.85 1759L1892.57 1745.9L1681.5 1732.27L1691.46 1724.15C1686.7 1756.51 1682.26 1788.88 1677.17 1821.13C1672.19 1853.39 1667.21 1885.75 1661.91 1918C1656.71 1950.26 1651.19 1982.52 1645.46 2014.66C1639.4 2046.81 1633.88 2079.07 1627.27 2111.21Z" fill="white"/>
<path d="M1678.15 2358.11C1685.29 2318.82 1703.04 2281.47 1727.07 2248.89C1733.02 2240.67 1739.84 2233.09 1746.34 2225.3C1753.37 2218.04 1760.73 2210.9 1767.98 2203.76C1775.89 2197.37 1783.9 2190.99 1792.01 2184.82C1800.67 2179.3 1809.12 2173.67 1817.88 2168.36C1827.08 2163.93 1836.28 2159.38 1845.59 2155.16L1874.6 2145.09L1904.69 2138.92C1914.76 2137.41 1925.04 2137.08 1935.11 2136.32C1975.8 2135.24 2015.96 2144.01 2052.76 2158.84C2013.58 2151.48 1974.51 2147.47 1936.08 2151.15C1897.66 2154.72 1860.42 2166.2 1827.08 2185.03C1793.42 2203.32 1763.76 2228.65 1738.54 2258.09C1713.54 2287.64 1692.76 2321.09 1678.15 2358.11Z" fill="white"/>
<path d="M2521.01 2440.69C2533.46 2402.81 2556.29 2368.17 2584.54 2339.27C2591.58 2332.02 2599.37 2325.42 2606.84 2318.6C2614.85 2312.32 2623.08 2306.37 2631.3 2300.31C2640.07 2295 2648.84 2289.81 2657.71 2284.83C2667.02 2280.61 2676.22 2276.17 2685.64 2272.16C2695.38 2269.03 2705.12 2265.78 2714.97 2262.86L2745.06 2256.9L2775.7 2254.95C2785.87 2254.85 2796.04 2256.04 2806.22 2256.69C2846.7 2261.23 2885.23 2275.41 2919.65 2295.22C2881.88 2282.56 2843.78 2273.14 2805.14 2271.41C2766.6 2269.68 2728.07 2275.84 2692.46 2289.92C2656.63 2303.45 2623.62 2324.44 2594.72 2349.99C2565.82 2375.75 2540.71 2406.06 2521.01 2440.69Z" fill="white"/>
<path d="M1577.81 3419.94C1499.55 3419.94 1328.21 3402.29 1217.91 3260.5C1076.88 3079.09 1127.86 2731.1 1130.02 2716.27L1191.28 2725.58C1190.74 2728.94 1142.14 3062.1 1266.84 3222.4C1388.71 3379.13 1609.85 3356.62 1612.12 3356.4L1619.05 3417.99C1616.56 3418.31 1601.4 3419.94 1577.81 3419.94Z" fill="#FFC727"/>
<path opacity="0.4" d="M1577.81 3419.94C1499.55 3419.94 1328.21 3402.29 1217.91 3260.5C1076.88 3079.09 1127.86 2731.1 1130.02 2716.27L1191.28 2725.58C1190.74 2728.94 1142.14 3062.1 1266.84 3222.4C1388.71 3379.13 1609.85 3356.62 1612.12 3356.4L1619.05 3417.99C1616.56 3418.31 1601.4 3419.94 1577.81 3419.94Z" fill="white"/>
<path d="M1209.25 2767.79C1198.1 2767.79 1186.63 2766.82 1175.05 2764.98C1071.68 2748.2 1026 2686.4 1005.76 2637.47C985.521 2588.44 980.867 2529.13 991.907 2461.15L1122.99 2482.37C1116.17 2524.47 1118.11 2561.49 1128.61 2586.82C1136.08 2604.79 1150.48 2626.43 1196.37 2633.9C1217.37 2637.26 1239.99 2635.52 1263.8 2599.7C1282.1 2572.1 1293.14 2534.43 1297.03 2510.62L1428.11 2531.83C1425.08 2550.56 1412.2 2616.15 1374.53 2673.08C1333.29 2735 1275.6 2767.79 1209.25 2767.79Z" fill="#FFC727"/>
<path d="M1707.26 3597.23C1707.05 3594.42 1596.21 3576.67 1596.21 3576.67L1542.41 3215.04L1676.63 3162L1707.26 3597.23Z" fill="#FFC727"/>
<path opacity="0.2" d="M1707.26 3597.23C1707.05 3594.42 1596.21 3576.67 1596.21 3576.67L1542.41 3215.04L1676.63 3162L1707.26 3597.23Z" fill="black"/>
<path d="M2802.54 3597.88C2802.86 3595.07 2914.03 3579.81 2914.03 3579.81L2975.83 3219.48L2842.8 3163.52L2802.54 3597.88Z" fill="#FFC727"/>
<path opacity="0.2" d="M2802.54 3597.88C2802.86 3595.07 2914.03 3579.81 2914.03 3579.81L2975.83 3219.48L2842.8 3163.52L2802.54 3597.88Z" fill="black"/>
<path d="M1661.15 3081.15C1661.15 3081.15 2557.27 3042.83 2859.91 3093.27C2859.91 3093.27 2771.04 3960.38 2766.17 3977.15C2766.17 3977.15 1874.82 3974.77 1735.51 3977.15C1735.51 3977.15 1659.96 3400.56 1661.15 3081.15Z" fill="#FFC727"/>
<path opacity="0.2" d="M1933.27 3318.73C1933.27 3318.73 2422.4 3299.47 2587.68 3324.9C2587.68 3324.9 2539.19 3762.08 2536.49 3770.63C2536.49 3770.63 2049.84 3769.44 1973.86 3770.63C1973.86 3770.52 1940.52 3471.35 1933.27 3318.73Z" fill="black"/>
<path opacity="0.2" d="M2000.16 3770.42C1989.01 3770.42 1980.03 3770.52 1973.86 3770.63C1973.86 3770.63 1940.52 3471.35 1933.27 3318.73C1933.27 3318.73 1944.42 3318.3 1963.79 3317.65L2000.16 3770.42Z" fill="black"/>
<path d="M2144.44 3426.65C2117.06 3417.99 2087.83 3433.25 2079.17 3460.64C2070.51 3488.13 2085.78 3517.24 2113.16 3525.9C2140.55 3534.56 2169.77 3519.3 2178.32 3491.92C2187.09 3464.53 2171.83 3435.31 2144.44 3426.65ZM2172.37 3489.97C2164.79 3514.11 2139.14 3527.42 2115.11 3519.84C2091.08 3512.27 2077.66 3486.61 2085.23 3462.48C2092.81 3438.45 2118.46 3425.02 2142.6 3432.6C2166.63 3440.29 2179.94 3465.94 2172.37 3489.97ZM2144.44 3426.65C2117.06 3417.99 2087.83 3433.25 2079.17 3460.64C2070.51 3488.13 2085.78 3517.24 2113.16 3525.9C2140.55 3534.56 2169.77 3519.3 2178.32 3491.92C2187.09 3464.53 2171.83 3435.31 2144.44 3426.65ZM2172.37 3489.97C2164.79 3514.11 2139.14 3527.42 2115.11 3519.84C2091.08 3512.27 2077.66 3486.61 2085.23 3462.48C2092.81 3438.45 2118.46 3425.02 2142.6 3432.6C2166.63 3440.29 2179.94 3465.94 2172.37 3489.97ZM2144.44 3426.65C2117.06 3417.99 2087.83 3433.25 2079.17 3460.64C2070.51 3488.13 2085.78 3517.24 2113.16 3525.9C2140.55 3534.56 2169.77 3519.3 2178.32 3491.92C2187.09 3464.53 2171.83 3435.31 2144.44 3426.65ZM2172.37 3489.97C2164.79 3514.11 2139.14 3527.42 2115.11 3519.84C2091.08 3512.27 2077.66 3486.61 2085.23 3462.48C2092.81 3438.45 2118.46 3425.02 2142.6 3432.6C2166.63 3440.29 2179.94 3465.94 2172.37 3489.97ZM2161.76 3371.66C2103.96 3353.48 2042.37 3385.63 2024.19 3443.32C2006 3501.12 2038.04 3562.7 2095.84 3580.89C2153.53 3599.07 2215.23 3567.03 2233.41 3509.23C2251.6 3451.43 2219.56 3389.85 2161.76 3371.66ZM2186.11 3494.3C2176.16 3525.9 2142.39 3543.55 2110.67 3533.59C2079.07 3523.63 2061.42 3489.86 2071.38 3458.15C2081.34 3426.54 2115.22 3408.9 2146.82 3418.85C2178.43 3428.92 2196.07 3462.69 2186.11 3494.3ZM2178.43 3491.92C2187.09 3464.53 2171.83 3435.31 2144.44 3426.65C2117.06 3417.99 2087.83 3433.25 2079.17 3460.64C2070.51 3488.13 2085.78 3517.24 2113.16 3525.9C2140.55 3534.56 2169.77 3519.3 2178.43 3491.92ZM2172.37 3489.97C2164.79 3514.11 2139.14 3527.42 2115.11 3519.84C2091.08 3512.27 2077.66 3486.61 2085.23 3462.48C2092.81 3438.45 2118.46 3425.02 2142.6 3432.6C2166.63 3440.29 2179.94 3465.94 2172.37 3489.97ZM2144.44 3426.65C2117.06 3417.99 2087.83 3433.25 2079.17 3460.64C2070.51 3488.13 2085.78 3517.24 2113.16 3525.9C2140.55 3534.56 2169.77 3519.3 2178.32 3491.92C2187.09 3464.53 2171.83 3435.31 2144.44 3426.65ZM2172.37 3489.97C2164.79 3514.11 2139.14 3527.42 2115.11 3519.84C2091.08 3512.27 2077.66 3486.61 2085.23 3462.48C2092.81 3438.45 2118.46 3425.02 2142.6 3432.6C2166.63 3440.29 2179.94 3465.94 2172.37 3489.97ZM2144.44 3426.65C2117.06 3417.99 2087.83 3433.25 2079.17 3460.64C2070.51 3488.13 2085.78 3517.24 2113.16 3525.9C2140.55 3534.56 2169.77 3519.3 2178.32 3491.92C2187.09 3464.53 2171.83 3435.31 2144.44 3426.65ZM2172.37 3489.97C2164.79 3514.11 2139.14 3527.42 2115.11 3519.84C2091.08 3512.27 2077.66 3486.61 2085.23 3462.48C2092.81 3438.45 2118.46 3425.02 2142.6 3432.6C2166.63 3440.29 2179.94 3465.94 2172.37 3489.97Z" fill="#FFC727"/>
<path d="M2117.27 3582.84L2077.12 3570.17L2070.41 3599.29L2106.13 3610.66L2117.27 3582.84Z" fill="#FFC727"/>
<path d="M2045.08 3545.17L2025.59 3507.83L2000.16 3523.63L2017.48 3556.86L2045.08 3545.17Z" fill="#FFC727"/>
<path d="M2020.62 3467.45L2033.28 3427.19L2004.06 3420.48L1992.8 3456.2L2020.62 3467.45Z" fill="#FFC727"/>
<path d="M2058.28 3395.15L2095.63 3375.67L2079.82 3350.23L2046.49 3367.66L2058.28 3395.15Z" fill="#FFC727"/>
<path d="M2136 3370.69L2176.16 3383.35L2182.98 3354.24L2147.15 3342.87L2136 3370.69Z" fill="#FFC727"/>
<path d="M2208.3 3408.36L2227.79 3445.81L2253.11 3429.9L2235.8 3396.67L2208.3 3408.36Z" fill="#FFC727"/>
<path d="M2232.77 3486.07L2220.1 3526.34L2249.22 3533.05L2260.47 3497.33L2232.77 3486.07Z" fill="#FFC727"/>
<path d="M2195.1 3558.38L2157.65 3577.86L2173.56 3603.29L2206.79 3585.98L2195.1 3558.38Z" fill="#FFC727"/>
<path d="M2321.31 3579.7C2305.07 3569.09 2283.42 3573.75 2272.81 3589.98C2262.21 3606.22 2266.86 3627.87 2283.1 3638.47C2299.33 3649.08 2320.98 3644.43 2331.59 3628.19C2342.09 3611.95 2337.54 3590.2 2321.31 3579.7ZM2328.02 3625.81C2318.71 3640.1 2299.66 3644.1 2285.48 3634.79C2271.19 3625.48 2267.19 3606.43 2276.49 3592.25C2285.8 3577.97 2304.85 3573.96 2319.03 3583.27C2333.21 3592.58 2337.22 3611.52 2328.02 3625.81ZM2321.31 3579.7C2305.07 3569.09 2283.42 3573.75 2272.81 3589.98C2262.21 3606.22 2266.86 3627.87 2283.1 3638.47C2299.33 3649.08 2320.98 3644.43 2331.59 3628.19C2342.09 3611.95 2337.54 3590.2 2321.31 3579.7ZM2328.02 3625.81C2318.71 3640.1 2299.66 3644.1 2285.48 3634.79C2271.19 3625.48 2267.19 3606.43 2276.49 3592.25C2285.8 3577.97 2304.85 3573.96 2319.03 3583.27C2333.21 3592.58 2337.22 3611.52 2328.02 3625.81ZM2321.31 3579.7C2305.07 3569.09 2283.42 3573.75 2272.81 3589.98C2262.21 3606.22 2266.86 3627.87 2283.1 3638.47C2299.33 3649.08 2320.98 3644.43 2331.59 3628.19C2342.09 3611.95 2337.54 3590.2 2321.31 3579.7ZM2328.02 3625.81C2318.71 3640.1 2299.66 3644.1 2285.48 3634.79C2271.19 3625.48 2267.19 3606.43 2276.49 3592.25C2285.8 3577.97 2304.85 3573.96 2319.03 3583.27C2333.21 3592.58 2337.22 3611.52 2328.02 3625.81ZM2342.52 3547.12C2308.32 3524.82 2262.64 3534.56 2240.34 3568.66C2218.15 3602.86 2227.79 3648.54 2261.88 3670.84C2295.98 3693.03 2341.76 3683.39 2364.06 3649.19C2386.25 3615.2 2376.62 3569.42 2342.52 3547.12ZM2336.13 3631.11C2323.9 3649.84 2298.79 3655.14 2280.17 3643.02C2261.45 3630.9 2256.15 3605.68 2268.38 3587.06C2280.61 3568.33 2305.72 3563.03 2324.34 3575.26C2342.95 3587.28 2348.26 3612.39 2336.13 3631.11ZM2331.59 3628.19C2342.2 3611.95 2337.54 3590.31 2321.41 3579.7C2305.18 3569.09 2283.53 3573.75 2272.92 3589.98C2262.31 3606.22 2266.97 3627.87 2283.21 3638.47C2299.33 3648.97 2320.98 3644.32 2331.59 3628.19ZM2328.02 3625.81C2318.71 3640.1 2299.66 3644.1 2285.48 3634.79C2271.19 3625.48 2267.19 3606.43 2276.49 3592.25C2285.8 3577.97 2304.85 3573.96 2319.03 3583.27C2333.21 3592.58 2337.22 3611.52 2328.02 3625.81ZM2321.31 3579.7C2305.07 3569.09 2283.42 3573.75 2272.81 3589.98C2262.21 3606.22 2266.86 3627.87 2283.1 3638.47C2299.33 3649.08 2320.98 3644.43 2331.59 3628.19C2342.09 3611.95 2337.54 3590.2 2321.31 3579.7ZM2328.02 3625.81C2318.71 3640.1 2299.66 3644.1 2285.48 3634.79C2271.19 3625.48 2267.19 3606.43 2276.49 3592.25C2285.8 3577.97 2304.85 3573.96 2319.03 3583.27C2333.21 3592.58 2337.22 3611.52 2328.02 3625.81ZM2321.31 3579.7C2305.07 3569.09 2283.42 3573.75 2272.81 3589.98C2262.21 3606.22 2266.86 3627.87 2283.1 3638.47C2299.33 3649.08 2320.98 3644.43 2331.59 3628.19C2342.09 3611.95 2337.54 3590.2 2321.31 3579.7ZM2328.02 3625.81C2318.71 3640.1 2299.66 3644.1 2285.48 3634.79C2271.19 3625.48 2267.19 3606.43 2276.49 3592.25C2285.8 3577.97 2304.85 3573.96 2319.03 3583.27C2333.21 3592.58 2337.22 3611.52 2328.02 3625.81Z" fill="#DBDBDB"/>
<path d="M2275.52 3676.03L2251.71 3660.55L2242.07 3678.3L2263.18 3692.05L2275.52 3676.03Z" fill="#DBDBDB"/>
<path d="M2235.36 3638.58L2229.52 3610.76L2210.25 3616.5L2215.45 3641.18L2235.36 3638.58Z" fill="#DBDBDB"/>
<path d="M2233.63 3583.7L2249.11 3559.89L2231.36 3550.26L2217.61 3571.47L2233.63 3583.7Z" fill="#DBDBDB"/>
<path d="M2271.08 3543.66L2298.9 3537.81L2293.16 3518.44L2268.48 3523.74L2271.08 3543.66Z" fill="#DBDBDB"/>
<path d="M2325.96 3541.81L2349.77 3557.4L2359.41 3539.65L2338.19 3525.9L2325.96 3541.81Z" fill="#DBDBDB"/>
<path d="M2366.01 3579.37L2371.85 3607.08L2391.23 3601.45L2386.03 3576.78L2366.01 3579.37Z" fill="#DBDBDB"/>
<path d="M2367.85 3634.25L2352.37 3657.96L2370.01 3667.59L2383.76 3646.48L2367.85 3634.25Z" fill="#DBDBDB"/>
<path d="M2330.29 3674.3L2302.58 3680.15L2308.21 3699.52L2332.89 3694.22L2330.29 3674.3Z" fill="#DBDBDB"/>
<path d="M2838.26 3876.27L2872.68 3882.66L2971.18 3215.58L2931.99 3208.44L2838.26 3876.27Z" fill="#FFC727"/>
<path d="M2536.59 3770.53L2587.79 3324.79L2931.99 3208.33C2931.99 3208.33 2838.26 3883.42 2838.26 3876.17L2536.59 3770.53Z" fill="#FFC727"/>
<path opacity="0.4" d="M2536.59 3770.53L2587.79 3324.79L2931.99 3208.33C2931.99 3208.33 2838.26 3883.42 2838.26 3876.17L2536.59 3770.53Z" fill="white"/>
<path d="M1702.28 3342.87C1696.66 3305.96 1693.62 3268.73 1691.35 3231.49C1690.27 3212.87 1689.84 3194.15 1689.4 3175.53C1689.08 3156.92 1688.75 3138.19 1689.29 3119.57L1689.4 3114.7L1694.17 3114.48C1762.57 3110.8 1830.87 3106.37 1899.28 3103.34C1967.69 3099.98 2036.09 3096.84 2104.5 3094.79C2036.31 3100.96 1968.01 3106.26 1899.71 3111.13C1831.41 3116.43 1763.11 3120.33 1694.82 3124.98L1699.69 3119.79L1699.36 3175.53L1700.01 3231.28C1700.12 3249.89 1700.44 3268.51 1700.98 3287.13L1702.28 3342.87Z" fill="white"/>
<path d="M2635.74 3331.4C2657.06 3321.22 2678.71 3311.81 2700.69 3303.15C2722.55 3294.27 2744.63 3285.83 2766.93 3278.14C2789.23 3270.57 2811.63 3263.1 2834.47 3256.71C2857.2 3250.33 2880.15 3244.37 2903.63 3240.58L2909.37 3239.61L2908.29 3245.13C2902.88 3274.03 2897.25 3302.82 2890.54 3331.51C2893.03 3302.17 2896.6 3273.06 2900.39 3243.94L2905.15 3248.49C2882.42 3253.9 2859.91 3260.28 2837.39 3266.89C2814.88 3273.6 2792.47 3280.63 2770.17 3287.99L2635.74 3331.4Z" fill="white"/>
<path opacity="0.1" d="M1851.22 3082.99L1856.96 3194.47L1861.94 3305.96L1870.6 3529.04L1877.31 3752.12L1880.01 3863.72L1881.85 3975.31L1876.01 3863.83L1871.03 3752.34L1862.48 3529.26L1855.77 3306.18L1853.06 3194.58L1851.22 3082.99Z" fill="black"/>
<path opacity="0.1" d="M1819.29 3150.2C1821.46 3159.84 1815.72 3171.2 1804.89 3174.45C1799.7 3176.07 1793.53 3175.53 1788.33 3172.61C1783.25 3169.69 1779.46 3164.38 1778.27 3158.54C1777.08 3152.69 1778.48 3146.31 1782.16 3141.65C1785.74 3137 1791.26 3134.08 1796.67 3133.54C1807.82 3132.13 1817.56 3140.46 1819.29 3150.2ZM1819.29 3150.2C1818.32 3145.33 1815.18 3141 1810.96 3138.62C1806.73 3136.24 1801.65 3136.02 1797.53 3137.32C1788.88 3140.14 1784.65 3149.34 1786.28 3156.81C1787.68 3164.38 1795.04 3171.2 1804.14 3170.45C1808.57 3170.12 1813.12 3167.85 1816.04 3164.06C1819.07 3160.27 1820.26 3155.08 1819.29 3150.2Z" fill="black"/>
<path opacity="0.1" d="M1826.98 3283.88C1829.14 3293.51 1823.4 3304.88 1812.58 3308.13C1807.38 3309.75 1801.21 3309.21 1796.02 3306.29C1790.93 3303.36 1787.14 3298.06 1785.95 3292.21C1784.76 3286.37 1786.17 3279.98 1789.85 3275.33C1793.42 3270.67 1798.94 3267.75 1804.35 3267.21C1815.5 3265.8 1825.24 3274.14 1826.98 3283.88ZM1826.98 3283.88C1826 3279.01 1822.86 3274.68 1818.64 3272.3C1814.42 3269.92 1809.33 3269.7 1805.22 3271C1796.56 3273.81 1792.34 3283.01 1793.96 3290.48C1795.37 3298.06 1802.73 3304.88 1811.82 3304.12C1816.26 3303.69 1820.81 3301.52 1823.73 3297.73C1826.65 3293.95 1827.84 3288.64 1826.98 3283.88Z" fill="black"/>
<path opacity="0.1" d="M1831.85 3425.67C1834.01 3435.31 1828.27 3446.67 1817.45 3449.92C1812.25 3451.54 1806.09 3451 1800.89 3448.08C1795.8 3445.16 1792.01 3439.85 1790.82 3434.01C1789.63 3428.16 1791.04 3421.78 1794.72 3417.12C1798.29 3412.47 1803.81 3409.55 1809.22 3409C1820.37 3407.71 1830.11 3416.04 1831.85 3425.67ZM1831.85 3425.67C1830.87 3420.8 1827.73 3416.47 1823.51 3414.09C1819.29 3411.71 1814.2 3411.49 1810.09 3412.79C1801.43 3415.61 1797.21 3424.81 1798.83 3432.28C1800.24 3439.85 1807.6 3446.67 1816.69 3445.91C1821.13 3445.48 1825.68 3443.32 1828.6 3439.53C1831.52 3435.74 1832.71 3430.54 1831.85 3425.67Z" fill="black"/>
<path opacity="0.1" d="M1836.72 3567.58C1838.88 3577.21 1833.14 3588.57 1822.32 3591.82C1817.13 3593.45 1810.96 3592.9 1805.76 3589.98C1800.67 3587.06 1796.88 3581.76 1795.69 3575.91C1794.5 3570.07 1795.91 3563.68 1799.48 3559.03C1803.05 3554.37 1808.57 3551.45 1813.99 3550.91C1825.24 3549.5 1834.98 3557.94 1836.72 3567.58ZM1836.72 3567.58C1835.74 3562.71 1832.6 3558.38 1828.38 3555.99C1824.16 3553.61 1819.07 3553.4 1814.96 3554.7C1806.3 3557.51 1802.08 3566.71 1803.7 3574.18C1805.11 3581.76 1812.47 3588.57 1821.56 3587.82C1826 3587.49 1830.55 3585.22 1833.47 3581.43C1836.39 3577.64 1837.58 3572.45 1836.72 3567.58Z" fill="black"/>
<path opacity="0.1" d="M1841.59 3709.48C1843.75 3719.11 1838.02 3730.48 1827.19 3733.72C1822 3735.35 1815.83 3734.81 1810.63 3731.88C1805.54 3728.96 1801.76 3723.66 1800.56 3717.81C1799.37 3711.97 1800.78 3705.58 1804.46 3700.93C1808.03 3696.27 1813.55 3693.35 1818.97 3692.81C1830.11 3691.4 1839.86 3699.84 1841.59 3709.48ZM1841.59 3709.48C1840.61 3704.61 1837.47 3700.28 1833.25 3697.9C1829.03 3695.52 1823.94 3695.3 1819.83 3696.6C1811.17 3699.41 1806.95 3708.61 1808.57 3716.08C1809.98 3723.66 1817.34 3730.48 1826.43 3729.72C1830.87 3729.39 1835.42 3727.12 1838.34 3723.33C1841.26 3719.54 1842.45 3714.35 1841.59 3709.48Z" fill="black"/>
<path opacity="0.1" d="M1846.46 3851.38C1848.62 3861.01 1842.89 3872.38 1832.06 3875.63C1826.87 3877.25 1820.7 3876.71 1815.5 3873.79C1810.41 3870.86 1806.63 3865.56 1805.44 3859.71C1804.25 3853.87 1805.65 3847.48 1809.22 3842.83C1812.8 3838.17 1818.32 3835.25 1823.73 3834.71C1834.99 3833.3 1844.73 3841.75 1846.46 3851.38ZM1846.46 3851.38C1845.48 3846.51 1842.35 3842.18 1838.12 3839.8C1833.9 3837.42 1828.82 3837.2 1824.7 3838.5C1816.04 3841.31 1811.82 3850.51 1813.45 3857.98C1814.85 3865.56 1822.21 3872.38 1831.3 3871.62C1835.74 3871.19 1840.29 3869.02 1843.21 3865.23C1846.13 3861.45 1847.32 3856.25 1846.46 3851.38Z" fill="black"/>
<path d="M1890.28 4068.3L1382.92 4222.05L1400.88 4281.3L1908.24 4127.55L1890.28 4068.3Z" fill="#FFC727"/>
<path opacity="0.4" d="M1890.28 4068.3L1382.92 4222.05L1400.88 4281.3L1908.24 4127.55L1890.28 4068.3Z" fill="white"/>
<path d="M1647.46 4121.73L1588.46 4140.5L1616.34 4228.18L1675.34 4209.41L1647.46 4121.73Z" fill="#FFC727"/>
<path d="M1396.83 4368.22L1265.97 3801.26L870.787 3895L1065.29 4447.46L1396.83 4368.22Z" fill="#FFC727"/>
<path d="M1484.51 4339.43L1396.83 4368.22L1265.97 3801.27L1392.07 3831.25L1484.51 4339.43Z" fill="#FFC727"/>
<path opacity="0.2" d="M1484.51 4339.43L1396.83 4368.22L1265.97 3801.27L1392.07 3831.25L1484.51 4339.43Z" fill="black"/>
<path d="M1899.5 4165.17C1936.62 4165.17 1966.71 4135.07 1966.71 4097.95C1966.71 4060.83 1936.62 4030.73 1899.5 4030.73C1862.37 4030.73 1832.28 4060.83 1832.28 4097.95C1832.28 4135.07 1862.37 4165.17 1899.5 4165.17Z" fill="#FFC727"/>
<path d="M2591.6 4066.69L2573.52 4125.9L3080.57 4280.71L3098.65 4221.5L2591.6 4066.69Z" fill="#FFC727"/>
<path opacity="0.4" d="M2591.6 4066.69L2573.52 4125.9L3080.57 4280.71L3098.65 4221.5L2591.6 4066.69Z" fill="white"/>
<path d="M2834.69 4120.37L2806.61 4207.98L2865.57 4226.88L2893.65 4139.26L2834.69 4120.37Z" fill="#FFC727"/>
<path d="M3084.61 4367.68L3216.77 3801.05L3611.74 3895.54L3416.04 4447.67L3084.61 4367.68Z" fill="#FFC727"/>
<path d="M2997.05 4338.67L3084.61 4367.68L3216.77 3801.05L3090.56 3830.81L2997.05 4338.67Z" fill="#FFC727"/>
<path opacity="0.2" d="M2997.05 4338.67L3084.61 4367.68L3216.77 3801.05L3090.56 3830.81L2997.05 4338.67Z" fill="black"/>
<path d="M2515.38 4096.22C2515.27 4133.34 2545.36 4163.54 2582.49 4163.65C2619.61 4163.76 2649.81 4133.67 2649.92 4096.54C2650.03 4059.42 2619.94 4029.22 2582.81 4029.11C2545.69 4029 2515.49 4059.09 2515.38 4096.22Z" fill="#FFC727"/>
<path d="M3023.02 3396.99C3024.65 3395.47 3187.55 3244.37 3379.24 3296C3575.26 3348.93 3737.19 3644.21 3738.7 3647.13L3793.15 3617.69C3786.11 3604.59 3617.26 3296 3395.26 3236.15C3169.47 3175.32 2987.84 3344.71 2980.16 3351.96L3023.02 3396.99Z" fill="#FFC727"/>
<path opacity="0.4" d="M3023.02 3396.99C3024.65 3395.47 3187.55 3244.37 3379.24 3296C3575.26 3348.93 3737.19 3644.21 3738.7 3647.13L3793.15 3617.69C3786.11 3604.59 3617.26 3296 3395.26 3236.15C3169.47 3175.32 2987.84 3344.71 2980.16 3351.96L3023.02 3396.99Z" fill="white"/>
<path d="M3666.51 3944.47L3783.95 3882.44C3772.69 3861.12 3758.84 3824.43 3756.78 3791.31C3754.18 3748.44 3771.17 3733.29 3790.01 3723.44C3831.14 3701.68 3855.71 3710.34 3872.49 3720.19C3895.97 3734.05 3919.9 3762.52 3939.81 3800.18L4057.25 3738.16C4025.1 3677.33 3985.71 3632.74 3940.03 3605.78C3894.46 3578.94 3820.75 3557.08 3728.1 3606C3655.9 3644.1 3619.1 3712.73 3624.4 3799.32C3628.41 3867.51 3657.63 3927.69 3666.51 3944.47Z" fill="#FFC727"/>
<path d="M3047.81 3190.14C3073.25 3172.61 3099.33 3156.05 3125.42 3139.6C3151.5 3123.04 3178.02 3107.34 3204.54 3091.54C3231.17 3075.95 3257.79 3060.47 3284.96 3045.64L3325.55 3023.46C3339.3 3016.42 3352.83 3009.06 3366.79 3002.24C3354.13 3011.12 3341.14 3019.45 3328.26 3028L3289.18 3052.79C3263.1 3069.24 3236.58 3085.04 3210.06 3100.85C3183.43 3116.43 3156.81 3131.91 3129.64 3146.74C3102.58 3161.68 3075.52 3176.4 3047.81 3190.14Z" fill="#263238"/>
<path d="M2980.38 3443.43C3016.85 3464.21 3051.38 3487.59 3085.37 3511.72C3119.25 3536.08 3152.69 3561.08 3184.08 3588.79C3147.61 3568.01 3113.08 3544.63 3079.09 3520.49C3045.21 3496.14 3011.87 3471.13 2980.38 3443.43Z" fill="#263238"/>
<path d="M3040.23 3412.25C3068.38 3420.8 3096.08 3430.44 3123.69 3440.29C3151.39 3450.03 3178.67 3460.53 3206.06 3471.03C3233.33 3481.74 3260.61 3492.57 3287.56 3504.04L3327.93 3521.36C3341.25 3527.53 3354.78 3533.26 3367.98 3539.76C3353.91 3535.54 3340.06 3530.77 3326.09 3526.34L3284.64 3511.83C3256.93 3502.09 3229.65 3491.59 3202.27 3481.09C3174.99 3470.38 3147.71 3459.55 3120.76 3448.08C3093.59 3436.61 3066.64 3424.92 3040.23 3412.25Z" fill="#263238"/>
<path d="M3120.11 3213.85C3147.07 3206.81 3174.23 3200.97 3201.4 3195.34C3228.57 3189.6 3255.85 3184.62 3283.23 3179.65C3310.62 3174.99 3338 3170.34 3365.49 3166.44L3406.73 3160.7C3420.59 3159.19 3434.33 3157.35 3448.19 3156.16C3434.77 3159.73 3421.13 3162.65 3407.6 3166.01L3366.9 3174.67C3339.73 3180.4 3312.46 3185.38 3285.07 3190.36C3257.69 3195.02 3230.3 3199.67 3202.81 3203.57C3175.32 3207.46 3147.82 3211.25 3120.11 3213.85Z" fill="#263238"/>
<path d="M2470.57 3382.38C2475.11 3360.51 2482.47 3339.08 2492 3318.84C2501.52 3298.49 2513.11 3279.01 2527.72 3261.69C2542.33 3244.59 2560.41 3229.44 2582.16 3221.1C2603.81 3212.98 2628.71 3213.09 2650.46 3221.75C2672.43 3230.3 2689.86 3248.81 2699.17 3270.13C2704.04 3280.74 2707.07 3292.11 2708.37 3303.8C2709.45 3315.49 2709.02 3327.5 2704.37 3339.19C2701.98 3344.93 2698.3 3350.66 2692.46 3354.56C2689.64 3356.51 2686.07 3357.7 2682.72 3358.24C2679.36 3358.67 2675.9 3358.57 2671.89 3357.27C2664.64 3354.24 2661.07 3348.39 2657.93 3343.09C2655.12 3337.67 2652.95 3332.05 2651.54 3326.42C2645.48 3303.8 2644.83 3280.85 2645.92 3258.12C2649.16 3212.87 2661.07 3167.63 2685.42 3128.66C2697.76 3109.4 2713.13 3091.75 2732.4 3078.77C2751.34 3065.78 2773.53 3056.79 2796.15 3054.2C2807.3 3051.49 2818.77 3051.71 2830.14 3051.16C2835.88 3050.52 2841.51 3051.92 2847.13 3052.25C2852.76 3053 2858.5 3052.9 2864.02 3054.52C2886.53 3058.53 2907.64 3067.62 2927.34 3078.55C2946.93 3089.91 2964.47 3104.42 2980.38 3120.11C2996.18 3136.02 3010.58 3153.45 3022.16 3172.61C2996.61 3136.13 2963.6 3104.42 2924.74 3083.1C2905.15 3072.92 2884.48 3064.59 2862.72 3061.23C2857.42 3059.72 2851.79 3060.04 2846.38 3059.39C2840.86 3059.28 2835.44 3057.98 2830.03 3058.74C2819.1 3059.5 2808.06 3059.5 2797.45 3062.31C2775.59 3065.34 2755.35 3074.11 2737.6 3086.34C2719.74 3098.57 2705.23 3115.46 2693.65 3133.86C2670.7 3171.09 2659.45 3215.04 2656.63 3258.77C2655.44 3280.63 2655.98 3302.93 2661.39 3323.6C2663.99 3333.56 2668.65 3344.71 2675.47 3347.85C2676.33 3347.96 2676.87 3348.39 2677.96 3348.39C2679.04 3348.28 2680.12 3348.5 2681.2 3348.28C2683.26 3347.96 2685.21 3347.42 2686.94 3346.12C2690.51 3343.84 2693.33 3339.95 2695.17 3335.4C2698.95 3326.2 2699.71 3315.27 2698.74 3304.77C2697.65 3294.16 2694.95 3283.66 2690.62 3273.92C2682.07 3254.44 2666.91 3237.66 2647.22 3229.44C2627.62 3221.1 2604.68 3220.45 2584.44 3227.49C2563.98 3234.85 2546.44 3248.92 2531.72 3265.15C2502.28 3298.17 2482.37 3339.41 2470.57 3382.38Z" fill="#263238"/>
<path d="M1470.33 3662.93C1480.83 3643.24 1496.09 3626.24 1514.06 3612.71C1531.91 3599.29 1552.59 3588.79 1574.67 3583.7C1596.64 3578.4 1620.35 3578.29 1642.32 3585C1664.4 3591.6 1684.21 3604.49 1700.12 3620.94C1716.14 3637.39 1728.04 3657.41 1736.27 3678.63C1744.28 3699.95 1749.15 3722.68 1747.42 3746.06C1746.23 3757.54 1743.96 3769.88 1734.86 3779.83C1730.32 3784.7 1723.39 3787.95 1716.68 3788.06C1710.19 3787.95 1704.02 3786.98 1698.06 3783.84C1692.11 3780.81 1687.35 3775.4 1684.64 3769.55C1681.93 3763.6 1680.85 3757.43 1680.53 3751.37C1680.09 3739.24 1682.69 3727.77 1686.26 3716.73C1693.52 3694.76 1705.42 3675.06 1719.39 3657.09C1733.35 3639.23 1749.91 3623.21 1768.42 3610.01C1805.11 3583.38 1851.76 3568.55 1897.33 3574.5C1919.85 3577.53 1942.14 3584.03 1961.84 3595.5C1981.76 3606.54 1998.97 3622.02 2012.93 3639.55C2027 3657.2 2037.93 3677.11 2046.27 3697.79C2054.71 3718.46 2060.88 3740.11 2063.91 3762.19C2054.82 3718.79 2036.96 3676.68 2008.6 3643.13C1994.53 3626.35 1977.54 3611.95 1958.27 3601.78C1939.22 3591.28 1917.79 3585.54 1896.25 3583.16C1852.95 3578.4 1809.01 3592.25 1774.15 3618.12C1739.3 3643.78 1710.73 3679.6 1696.33 3720.09C1692.98 3730.15 1690.59 3740.76 1690.92 3750.93C1691.13 3761 1694.71 3770.74 1702.82 3774.85C1706.61 3777.02 1711.81 3777.89 1716.35 3777.99C1720.79 3777.89 1724.69 3776.15 1727.72 3772.91C1734 3766.3 1736.7 3755.48 1737.68 3745.2C1739.41 3724.09 1734.97 3702.23 1727.4 3681.98C1719.71 3661.74 1708.35 3642.8 1693.62 3627C1678.9 3611.2 1660.39 3598.86 1639.94 3592.15C1619.48 3585.33 1597.07 3584.79 1575.75 3589.33C1533.32 3598.42 1493.92 3625.16 1470.33 3662.93Z" fill="#263238"/>
<path d="M969.61 1048.95C968.419 1004.46 958.894 959.544 938.221 920.469C927.83 901.094 914.083 883.235 896.007 871.22C877.931 859.53 855.526 854.659 834.527 858.123C813.42 861.479 794.695 874.143 781.706 891.028C775.104 899.471 770.016 908.996 766.444 918.954C762.981 928.912 761.032 939.736 762.548 949.586C763.305 954.456 765.037 959.002 767.96 962.033C769.367 963.657 771.099 964.631 773.047 965.497C773.913 966.038 775.104 966.038 776.186 966.363C777.268 966.579 777.918 966.254 778.784 966.363C786.144 964.956 793.396 955.214 798.267 946.23C808.55 927.396 814.395 905.857 818.399 884.317C826.084 841.238 825.651 795.885 812.23 754.213C805.411 733.539 795.344 713.84 780.84 697.604C766.444 681.476 748.91 668.163 728.452 659.937C718.819 654.633 708.103 652.035 697.712 648.68C692.517 646.623 686.997 646.623 681.585 645.432C676.173 644.675 670.761 643.159 665.349 643.268C643.376 641.319 621.295 644.566 599.972 649.762C557.217 661.127 517.602 684.074 484.047 713.407C499.85 697.496 517.926 684.074 537.085 672.384C556.351 660.911 576.809 650.953 598.565 644.675C620.321 638.83 643.051 635.041 665.782 636.557C671.518 636.232 677.039 637.747 682.775 638.397C688.404 639.479 694.14 639.479 699.552 641.428C710.484 644.675 721.741 647.164 731.916 652.468C753.239 660.369 772.722 674.441 787.984 691.542C803.571 708.644 814.286 729.535 821.647 751.182C836.042 794.803 836.8 841.671 829.115 886.374C824.785 908.671 818.616 930.86 807.359 951.317C804.545 956.405 801.189 961.384 797.184 966.038C792.963 970.368 787.984 975.13 780.191 976.429C776.078 976.862 772.614 976.104 769.475 974.805C766.228 973.506 763.197 971.558 760.816 968.96C755.945 963.873 753.78 957.379 752.806 951.209C751.074 938.87 753.564 926.964 757.352 915.923C761.357 904.883 766.986 894.6 774.238 885.4C788.417 866.999 809.74 853.144 833.12 850.113C856.283 846.866 880.529 852.711 899.579 865.808C918.629 879.122 932.592 898.064 942.658 918.196C952.725 938.545 959.327 960.193 963.765 982.274C968.311 1004.14 970.368 1026.65 969.61 1048.95Z" fill="#263238"/>
<path d="M3359.76 1613.64C3316.14 1604.43 3270.35 1603.14 3227.49 1614.18C3206.27 1619.8 3185.6 1629.01 3169.8 1643.73C3154.21 1658.55 3144.25 1679.23 3142.74 1700.44C3141 1721.66 3149.01 1742.87 3162.44 1759.43C3169.04 1767.77 3177.16 1775.02 3186.03 1780.76C3194.91 1786.39 3204.97 1790.82 3214.82 1791.69C3219.69 1792.12 3224.56 1791.36 3228.14 1789.31C3229.98 1788.33 3231.38 1786.82 3232.68 1785.19C3233.33 1784.44 3233.66 1783.35 3234.2 1782.38C3234.63 1781.41 3234.52 1780.65 3234.85 1779.89C3235.17 1772.42 3227.38 1763.11 3219.8 1756.19C3203.89 1741.79 3184.3 1731.08 3164.38 1722.2C3124.23 1704.66 3080.07 1694.49 3036.44 1697.85C3014.8 1699.69 2993.26 1704.88 2974.1 1715.16C2955.05 1725.34 2937.95 1739.3 2925.28 1757.38C2917.81 1765.5 2912.83 1775.35 2907.1 1784.65C2903.96 1789.2 2902.55 1794.61 2900.17 1799.48C2898.22 1804.57 2895.41 1809.44 2894.33 1814.85C2887.4 1835.74 2885.23 1857.93 2885.34 1880.01C2886.42 1924.28 2899.41 1968.12 2920.2 2007.63C2908.51 1988.58 2899.63 1967.8 2892.7 1946.47C2885.99 1925.04 2881.12 1902.85 2880.04 1880.23C2879.39 1857.72 2881.01 1834.77 2887.83 1812.9C2888.91 1807.28 2891.62 1802.19 2893.57 1796.88C2895.95 1791.69 2897.25 1786.06 2900.39 1781.3C2906.12 1771.45 2911.1 1761.06 2918.68 1752.4C2931.34 1733.46 2949.53 1717.87 2969.77 1707.05C2990.12 1695.9 3012.85 1690.38 3035.69 1688.21C3081.47 1684.42 3127.15 1694.6 3168.82 1712.46C3189.5 1721.87 3209.63 1733.02 3226.95 1748.83C3231.28 1752.72 3235.28 1757.16 3238.85 1762.14C3242.1 1767.34 3245.56 1773.18 3245.02 1781.08C3244.37 1785.19 3242.97 1788.33 3241.02 1791.15C3238.96 1793.96 3236.36 1796.56 3233.22 1798.18C3227.05 1801.65 3220.24 1802.3 3214.17 1801.76C3201.73 1800.57 3190.79 1795.37 3180.94 1789.09C3171.2 1782.6 3162.44 1774.7 3155.18 1765.5C3140.57 1747.42 3132.13 1723.5 3134.62 1700.01C3136.89 1676.63 3148.26 1654.55 3165.36 1638.96C3182.78 1623.49 3204.43 1614.39 3226.4 1609.31C3248.49 1604.22 3271.22 1602.92 3293.62 1603.79C3315.81 1604.33 3338.11 1607.57 3359.76 1613.64Z" fill="#263238"/>
<path d="M2689.65 913.325C2682.28 887.672 2681.2 860.288 2685.42 833.769C2689.54 807.25 2698.52 781.273 2713.24 758.434C2727.64 735.596 2747.88 715.788 2772.23 703.232C2796.48 690.568 2824.19 685.048 2851.46 685.914C2878.85 686.672 2905.69 693.707 2930.37 704.964C2955.05 716.437 2978.1 731.916 2996.07 753.131C3004.62 763.846 3012.85 776.294 3013.39 791.989C3013.61 799.674 3010.47 808.008 3004.95 813.637C2999.43 818.94 2993.47 823.162 2985.9 825.327C2978.43 827.6 2970.2 827.058 2963.06 824.352C2955.91 821.646 2949.96 817.209 2944.66 812.338C2934.27 802.488 2926.91 790.473 2920.84 778.134C2908.83 753.347 2902.44 726.612 2899.41 699.66C2896.38 672.709 2897.25 645.324 2901.9 618.589C2911 565.227 2938.49 513.705 2982.22 480.8C3003.97 464.564 3028.33 451.467 3054.74 444.756C3080.93 437.612 3108.53 436.314 3135.16 439.561C3161.89 442.916 3187.87 450.601 3212.44 461.209C3237.01 471.816 3260.5 485.021 3281.61 501.257C3237.66 471.491 3187.11 450.168 3134.51 444.973C3108.32 442.267 3081.69 444.107 3056.58 451.467C3031.25 458.394 3008.09 471.491 2987.52 487.511C2967.17 503.855 2949.85 523.879 2937.19 546.61C2924.42 569.34 2916.08 594.452 2911.64 620.213C2903.2 671.626 2908.61 726.287 2930.37 773.371C2936 784.953 2942.82 796.102 2951.8 804.653C2960.57 813.204 2972.15 818.832 2982.97 815.368C2988.28 813.961 2993.58 810.281 2997.59 806.493C3001.38 802.596 3003.43 797.509 3003.32 791.881C3003.22 780.515 2996.29 768.934 2988.39 759.192C2972.04 739.493 2949.85 724.339 2926.36 713.407C2902.77 702.475 2877.01 695.764 2851.03 694.573C2825.05 693.382 2798.75 698.361 2775.59 709.943C2752.32 721.308 2732.51 739.709 2718.11 761.573C2689.1 805.194 2677.85 861.262 2689.65 913.325Z" fill="#263238"/>
<path d="M1434.17 3665.32C1409.93 3657.63 1384.06 3671.16 1376.48 3695.41C1368.8 3719.65 1382.33 3745.52 1406.57 3753.1C1430.82 3760.78 1456.58 3747.25 1464.26 3723.01C1471.84 3698.76 1458.42 3672.89 1434.17 3665.32ZM1458.85 3721.28C1452.14 3742.6 1429.41 3754.4 1408.2 3747.69C1386.87 3740.98 1375.08 3718.25 1381.79 3697.03C1388.5 3675.71 1411.23 3663.91 1432.44 3670.62C1453.77 3677.33 1465.56 3700.06 1458.85 3721.28ZM1434.17 3665.32C1409.93 3657.63 1384.06 3671.16 1376.48 3695.41C1368.8 3719.65 1382.33 3745.52 1406.57 3753.1C1430.82 3760.78 1456.58 3747.25 1464.26 3723.01C1471.84 3698.76 1458.42 3672.89 1434.17 3665.32ZM1458.85 3721.28C1452.14 3742.6 1429.41 3754.4 1408.2 3747.69C1386.87 3740.98 1375.08 3718.25 1381.79 3697.03C1388.5 3675.71 1411.23 3663.91 1432.44 3670.62C1453.77 3677.33 1465.56 3700.06 1458.85 3721.28ZM1434.17 3665.32C1409.93 3657.63 1384.06 3671.16 1376.48 3695.41C1368.8 3719.65 1382.33 3745.52 1406.57 3753.1C1430.82 3760.78 1456.58 3747.25 1464.26 3723.01C1471.84 3698.76 1458.42 3672.89 1434.17 3665.32ZM1458.85 3721.28C1452.14 3742.6 1429.41 3754.4 1408.2 3747.69C1386.87 3740.98 1375.08 3718.25 1381.79 3697.03C1388.5 3675.71 1411.23 3663.91 1432.44 3670.62C1453.77 3677.33 1465.56 3700.06 1458.85 3721.28ZM1449.54 3616.61C1398.46 3600.48 1343.9 3628.95 1327.88 3679.93C1311.76 3731.02 1340.11 3785.46 1391.31 3801.59C1442.4 3817.72 1496.84 3789.25 1512.97 3738.16C1528.99 3687.29 1500.63 3632.74 1449.54 3616.61ZM1471.08 3725.17C1462.32 3753.21 1432.33 3768.79 1404.41 3759.92C1376.48 3751.15 1360.9 3721.17 1369.66 3693.24C1378.43 3665.21 1408.41 3649.73 1436.34 3658.5C1464.26 3667.26 1479.85 3697.25 1471.08 3725.17ZM1464.26 3723.01C1471.95 3698.76 1458.42 3672.89 1434.28 3665.32C1410.04 3657.63 1384.17 3671.16 1376.59 3695.41C1368.91 3719.65 1382.44 3745.52 1406.68 3753.1C1430.71 3760.68 1456.58 3747.25 1464.26 3723.01ZM1458.85 3721.28C1452.14 3742.6 1429.41 3754.4 1408.2 3747.69C1386.87 3740.98 1375.08 3718.25 1381.79 3697.03C1388.5 3675.71 1411.23 3663.91 1432.44 3670.62C1453.77 3677.33 1465.56 3700.06 1458.85 3721.28ZM1434.17 3665.32C1409.93 3657.63 1384.06 3671.16 1376.48 3695.41C1368.8 3719.65 1382.33 3745.52 1406.57 3753.1C1430.82 3760.78 1456.58 3747.25 1464.26 3723.01C1471.84 3698.76 1458.42 3672.89 1434.17 3665.32ZM1458.85 3721.28C1452.14 3742.6 1429.41 3754.4 1408.2 3747.69C1386.87 3740.98 1375.08 3718.25 1381.79 3697.03C1388.5 3675.71 1411.23 3663.91 1432.44 3670.62C1453.77 3677.33 1465.56 3700.06 1458.85 3721.28ZM1434.17 3665.32C1409.93 3657.63 1384.06 3671.16 1376.48 3695.41C1368.8 3719.65 1382.33 3745.52 1406.57 3753.1C1430.82 3760.78 1456.58 3747.25 1464.26 3723.01C1471.84 3698.76 1458.42 3672.89 1434.17 3665.32ZM1458.85 3721.28C1452.14 3742.6 1429.41 3754.4 1408.2 3747.69C1386.87 3740.98 1375.08 3718.25 1381.79 3697.03C1388.5 3675.71 1411.23 3663.91 1432.44 3670.62C1453.77 3677.33 1465.56 3700.06 1458.85 3721.28Z" fill="#455A64"/>
<path d="M1410.15 3803.43L1374.64 3792.28L1368.58 3818.04L1400.3 3828L1410.15 3803.43Z" fill="#455A64"/>
<path d="M1346.28 3770.2L1328.97 3737.08L1306.56 3751.04L1321.82 3780.48L1346.28 3770.2Z" fill="#455A64"/>
<path d="M1324.64 3701.36L1335.78 3665.75L1310.02 3659.8L1300.07 3691.51L1324.64 3701.36Z" fill="#455A64"/>
<path d="M1357.87 3637.39L1390.99 3620.18L1377.02 3597.77L1347.58 3613.04L1357.87 3637.39Z" fill="#455A64"/>
<path d="M1426.71 3615.74L1462.32 3627L1468.27 3601.24L1436.56 3591.28L1426.71 3615.74Z" fill="#455A64"/>
<path d="M1490.68 3649.08L1507.89 3682.2L1530.29 3668.13L1515.03 3638.8L1490.68 3649.08Z" fill="#455A64"/>
<path d="M1512.32 3717.92L1501.07 3753.42L1526.83 3759.48L1536.79 3727.77L1512.32 3717.92Z" fill="#455A64"/>
<path d="M1478.99 3781.78L1445.86 3799.1L1459.94 3821.51L1489.27 3806.24L1478.99 3781.78Z" fill="#455A64"/>
<path d="M3228.79 3355.97C3277.6 3290.27 3263.86 3197.4 3198.05 3148.58C3132.24 3099.76 3039.37 3113.51 2990.66 3179.21C2941.84 3245.02 2955.59 3337.89 3021.4 3386.71C3087.1 3435.52 3179.97 3421.78 3228.79 3355.97ZM3165.36 3308.88C3142.52 3339.62 3099.22 3346.01 3068.48 3323.28C3037.74 3300.44 3031.36 3257.14 3054.2 3226.4C3077.03 3195.66 3120.33 3189.28 3151.07 3212.12C3181.7 3234.85 3188.09 3278.25 3165.36 3308.88Z" fill="#263238"/>
<path d="M3047.92 3398.83L3002.13 3364.84L2980.59 3399.05L3021.29 3429.35L3047.92 3398.83Z" fill="#263238"/>
<path d="M2972.26 3318.62L2963.82 3262.23L2924.42 3271.32L2931.78 3321.44L2972.26 3318.62Z" fill="#263238"/>
<path d="M2975.29 3208.54L3009.28 3162.76L2974.96 3141.22L2944.77 3181.92L2975.29 3208.54Z" fill="#263238"/>
<path d="M3055.39 3132.78L3111.78 3124.44L3102.8 3085.04L3052.68 3092.4L3055.39 3132.78Z" fill="#263238"/>
<path d="M3165.57 3135.92L3211.36 3169.9L3232.9 3135.59L3192.2 3105.39L3165.57 3135.92Z" fill="#263238"/>
<path d="M3241.34 3216.01L3249.68 3272.41L3289.08 3263.42L3281.72 3213.2L3241.34 3216.01Z" fill="#263238"/>
<path d="M3238.2 3326.2L3204.22 3371.99L3238.53 3393.53L3268.73 3352.83L3238.2 3326.2Z" fill="#263238"/>
<path d="M3158.11 3401.86L3101.71 3410.2L3110.7 3449.7L3160.81 3442.23L3158.11 3401.86Z" fill="#263238"/>
<path d="M3056.58 3274.79L3088.07 3314.51L3138.19 3307.04L3156.81 3259.96L3125.31 3220.23L3075.19 3227.6L3056.58 3274.79ZM3116.33 3254.44C3123.47 3259.74 3124.98 3269.81 3119.68 3276.95C3114.38 3284.1 3104.31 3285.61 3097.17 3280.31C3090.02 3275 3088.51 3264.94 3093.81 3257.79C3099.12 3250.65 3109.18 3249.13 3116.33 3254.44Z" fill="#263238"/>
<path d="M3339.95 468.785C3318.73 462.075 3296.11 473.873 3289.4 495.088C3282.69 516.303 3294.49 538.925 3315.7 545.636C3336.92 552.346 3359.54 540.548 3366.14 519.333C3372.96 498.01 3361.16 475.388 3339.95 468.785ZM3361.6 517.818C3355.75 536.435 3335.84 546.826 3317.22 540.981C3298.6 535.136 3288.21 515.22 3294.16 496.603C3300.01 477.986 3319.92 467.595 3338.54 473.548C3357.05 479.285 3367.44 499.201 3361.6 517.818ZM3339.95 468.785C3318.73 462.075 3296.11 473.873 3289.4 495.088C3282.69 516.303 3294.49 538.925 3315.7 545.636C3336.92 552.346 3359.54 540.548 3366.14 519.333C3372.96 498.01 3361.16 475.388 3339.95 468.785ZM3361.6 517.818C3355.75 536.435 3335.84 546.826 3317.22 540.981C3298.6 535.136 3288.21 515.22 3294.16 496.603C3300.01 477.986 3319.92 467.595 3338.54 473.548C3357.05 479.285 3367.44 499.201 3361.6 517.818ZM3339.95 468.785C3318.73 462.075 3296.11 473.873 3289.4 495.088C3282.69 516.303 3294.49 538.925 3315.7 545.636C3336.92 552.346 3359.54 540.548 3366.14 519.333C3372.96 498.01 3361.16 475.388 3339.95 468.785ZM3361.6 517.818C3355.75 536.435 3335.84 546.826 3317.22 540.981C3298.6 535.136 3288.21 515.22 3294.16 496.603C3300.01 477.986 3319.92 467.595 3338.54 473.548C3357.05 479.285 3367.44 499.201 3361.6 517.818ZM3353.37 426.247C3308.67 412.176 3260.93 436.963 3246.86 481.666C3232.79 526.369 3257.58 574.103 3302.28 588.174C3346.98 602.245 3394.61 577.458 3408.79 532.755C3422.86 487.944 3398.07 440.318 3353.37 426.247ZM3372.2 521.173C3364.52 545.636 3338.32 559.274 3313.86 551.589C3289.4 543.904 3275.76 517.71 3283.45 493.248C3291.13 468.785 3317.33 455.147 3341.79 462.832C3366.25 470.517 3379.89 496.711 3372.2 521.173ZM3366.25 519.225C3372.96 498.01 3361.16 475.388 3339.95 468.677C3318.73 461.966 3296.11 473.764 3289.4 494.979C3282.69 516.194 3294.49 538.816 3315.7 545.527C3336.92 552.238 3359.54 540.44 3366.25 519.225ZM3361.6 517.818C3355.75 536.435 3335.84 546.826 3317.22 540.981C3298.6 535.136 3288.21 515.22 3294.16 496.603C3300.01 477.986 3319.92 467.595 3338.54 473.548C3357.05 479.285 3367.44 499.201 3361.6 517.818ZM3339.95 468.785C3318.73 462.075 3296.11 473.873 3289.4 495.088C3282.69 516.303 3294.49 538.925 3315.7 545.636C3336.92 552.346 3359.54 540.548 3366.14 519.333C3372.96 498.01 3361.16 475.388 3339.95 468.785ZM3361.6 517.818C3355.75 536.435 3335.84 546.826 3317.22 540.981C3298.6 535.136 3288.21 515.22 3294.16 496.603C3300.01 477.986 3319.92 467.595 3338.54 473.548C3357.05 479.285 3367.44 499.201 3361.6 517.818ZM3339.95 468.785C3318.73 462.075 3296.11 473.873 3289.4 495.088C3282.69 516.303 3294.49 538.925 3315.7 545.636C3336.92 552.346 3359.54 540.548 3366.14 519.333C3372.96 498.01 3361.16 475.388 3339.95 468.785ZM3361.6 517.818C3355.75 536.435 3335.84 546.826 3317.22 540.981C3298.6 535.136 3288.21 515.22 3294.16 496.603C3300.01 477.986 3319.92 467.595 3338.54 473.548C3357.05 479.285 3367.44 499.201 3361.6 517.818Z" fill="#263238"/>
<path d="M3318.95 589.689L3287.78 579.839L3282.58 602.461L3310.29 611.121L3318.95 589.689Z" fill="#263238"/>
<path d="M3262.99 560.464L3247.94 531.564L3228.24 543.796L3241.67 569.557L3262.99 560.464Z" fill="#263238"/>
<path d="M3244.05 500.283L3253.9 469.218L3231.28 464.023L3222.51 491.624L3244.05 500.283Z" fill="#263238"/>
<path d="M3273.16 444.323L3302.17 429.278L3289.83 409.687L3264.18 423L3273.16 444.323Z" fill="#263238"/>
<path d="M3333.35 425.381L3364.52 435.231L3369.71 412.609L3342 403.95L3333.35 425.381Z" fill="#263238"/>
<path d="M3389.31 454.606L3404.46 483.506L3424.05 471.275L3410.63 445.514L3389.31 454.606Z" fill="#263238"/>
<path d="M3408.25 514.787L3398.51 545.852L3421.02 551.156L3429.79 523.447L3408.25 514.787Z" fill="#263238"/>
<path d="M3379.13 570.747L3350.12 585.792L3362.46 605.492L3388.22 592.07L3379.13 570.747Z" fill="#263238"/>
<path d="M2926.26 2015.1C2905.04 2008.38 2882.42 2020.18 2875.71 2041.4C2869 2062.61 2880.8 2085.23 2902.01 2091.95C2923.23 2098.66 2945.85 2086.86 2952.45 2065.64C2959.27 2044.43 2947.47 2021.81 2926.26 2015.1ZM2947.9 2064.13C2942.06 2082.75 2922.14 2093.14 2903.53 2087.29C2884.91 2081.45 2874.52 2061.53 2880.47 2042.91C2886.32 2024.3 2906.23 2013.9 2924.85 2019.86C2943.47 2025.7 2953.75 2045.51 2947.9 2064.13ZM2926.26 2015.1C2905.04 2008.38 2882.42 2020.18 2875.71 2041.4C2869 2062.61 2880.8 2085.23 2902.01 2091.95C2923.23 2098.66 2945.85 2086.86 2952.45 2065.64C2959.27 2044.43 2947.47 2021.81 2926.26 2015.1ZM2947.9 2064.13C2942.06 2082.75 2922.14 2093.14 2903.53 2087.29C2884.91 2081.45 2874.52 2061.53 2880.47 2042.91C2886.32 2024.3 2906.23 2013.9 2924.85 2019.86C2943.47 2025.7 2953.75 2045.51 2947.9 2064.13ZM2926.26 2015.1C2905.04 2008.38 2882.42 2020.18 2875.71 2041.4C2869 2062.61 2880.8 2085.23 2902.01 2091.95C2923.23 2098.66 2945.85 2086.86 2952.45 2065.64C2959.27 2044.43 2947.47 2021.81 2926.26 2015.1ZM2947.9 2064.13C2942.06 2082.75 2922.14 2093.14 2903.53 2087.29C2884.91 2081.45 2874.52 2061.53 2880.47 2042.91C2886.32 2024.3 2906.23 2013.9 2924.85 2019.86C2943.47 2025.7 2953.75 2045.51 2947.9 2064.13ZM2939.68 1972.56C2894.98 1958.49 2847.24 1983.27 2833.17 2027.98C2819.1 2072.68 2843.89 2120.41 2888.59 2134.48C2933.29 2148.55 2980.92 2123.77 2995.1 2079.07C3009.28 2034.36 2984.38 1986.63 2939.68 1972.56ZM2958.51 2067.48C2950.83 2091.95 2924.63 2105.58 2900.17 2097.9C2875.71 2090.21 2862.07 2064.02 2869.76 2039.56C2877.44 2015.1 2903.63 2001.46 2928.1 2009.14C2952.67 2016.83 2966.31 2043.02 2958.51 2067.48ZM2952.56 2065.64C2959.27 2044.43 2947.47 2021.81 2926.26 2015.1C2905.04 2008.38 2882.42 2020.18 2875.71 2041.4C2869 2062.61 2880.8 2085.23 2902.01 2091.95C2923.33 2098.66 2945.85 2086.86 2952.56 2065.64ZM2947.9 2064.13C2942.06 2082.75 2922.14 2093.14 2903.53 2087.29C2884.91 2081.45 2874.52 2061.53 2880.47 2042.91C2886.32 2024.3 2906.23 2013.9 2924.85 2019.86C2943.47 2025.7 2953.75 2045.51 2947.9 2064.13ZM2926.26 2015.1C2905.04 2008.38 2882.42 2020.18 2875.71 2041.4C2869 2062.61 2880.8 2085.23 2902.01 2091.95C2923.23 2098.66 2945.85 2086.86 2952.45 2065.64C2959.27 2044.43 2947.47 2021.81 2926.26 2015.1ZM2947.9 2064.13C2942.06 2082.75 2922.14 2093.14 2903.53 2087.29C2884.91 2081.45 2874.52 2061.53 2880.47 2042.91C2886.32 2024.3 2906.23 2013.9 2924.85 2019.86C2943.47 2025.7 2953.75 2045.51 2947.9 2064.13ZM2926.26 2015.1C2905.04 2008.38 2882.42 2020.18 2875.71 2041.4C2869 2062.61 2880.8 2085.23 2902.01 2091.95C2923.23 2098.66 2945.85 2086.86 2952.45 2065.64C2959.27 2044.43 2947.47 2021.81 2926.26 2015.1ZM2947.9 2064.13C2942.06 2082.75 2922.14 2093.14 2903.53 2087.29C2884.91 2081.45 2874.52 2061.53 2880.47 2042.91C2886.32 2024.3 2906.23 2013.9 2924.85 2019.86C2943.47 2025.7 2953.75 2045.51 2947.9 2064.13Z" fill="#263238"/>
<path d="M2905.26 2136L2874.19 2126.26L2868.89 2148.77L2896.6 2157.54L2905.26 2136Z" fill="#263238"/>
<path d="M2849.3 2106.88L2834.25 2077.87L2814.66 2090.21L2827.97 2115.98L2849.3 2106.88Z" fill="#263238"/>
<path d="M2830.36 2046.7L2840.21 2015.53L2817.58 2010.33L2808.93 2038.04L2830.36 2046.7Z" fill="#263238"/>
<path d="M2859.58 1990.74L2888.48 1975.7L2876.25 1956L2850.49 1969.42L2859.58 1990.74Z" fill="#263238"/>
<path d="M2919.76 1971.8L2950.83 1981.65L2956.13 1959.03L2928.42 1950.26L2919.76 1971.8Z" fill="#263238"/>
<path d="M2975.72 2000.92L2990.77 2029.92L3010.47 2017.59L2997.05 1991.93L2975.72 2000.92Z" fill="#263238"/>
<path d="M2994.66 2061.1L2984.81 2092.27L3007.44 2097.47L3016.1 2069.76L2994.66 2061.1Z" fill="#263238"/>
<path d="M2965.44 2117.06L2936.54 2132.21L2948.77 2151.8L2974.53 2138.38L2965.44 2117.06Z" fill="#263238"/>
<path d="M559.057 797.725C575.726 729.21 533.729 660.153 465.214 643.484C396.698 626.815 327.641 668.812 310.972 737.328C294.303 805.843 336.3 874.9 404.816 891.569C473.223 908.238 542.388 866.241 559.057 797.725ZM492.923 781.598C485.13 813.636 452.874 833.228 420.944 825.435C388.905 817.641 369.313 785.386 377.107 753.347C384.9 721.308 417.155 701.717 449.194 709.51C481.125 717.412 500.716 749.559 492.923 781.598Z" fill="#263238"/>
<path d="M429.819 892.219L382.194 880.637L376.565 914.949L418.995 925.34L429.819 892.219Z" fill="#263238"/>
<path d="M343.011 854.01L317.467 812.121L289.216 832.47L311.838 869.705L343.011 854.01Z" fill="#263238"/>
<path d="M308.591 765.578L320.173 717.845L285.752 712.324L275.47 754.754L308.591 765.578Z" fill="#263238"/>
<path d="M346.8 678.662L388.688 653.225L368.339 624.867L330.997 647.597L346.8 678.662Z" fill="#263238"/>
<path d="M435.231 644.242L482.857 655.932L488.485 621.511L446.055 611.12L435.231 644.242Z" fill="#263238"/>
<path d="M522.04 682.45L547.584 724.447L575.835 703.99L553.213 666.756L522.04 682.45Z" fill="#263238"/>
<path d="M556.46 770.882L544.878 818.616L579.298 824.244L589.581 781.814L556.46 770.882Z" fill="#263238"/>
<path d="M518.251 857.798L476.362 883.343L496.711 911.593L534.054 888.863L518.251 857.798Z" fill="#263238"/>
<path d="M395.183 790.906L433.499 811.905L470.842 789.174L469.868 745.554L431.659 724.555L394.317 747.177L395.183 790.906ZM435.772 754.754C443.241 756.594 447.787 764.063 445.947 771.423C444.107 778.783 436.638 783.438 429.278 781.598C421.918 779.758 417.263 772.289 419.104 764.929C420.835 757.568 428.412 753.022 435.772 754.754Z" fill="#263238"/>
</g>
<defs>
<clipPath id="clip0_9_1068">
<rect width="4473" height="4619.88" fill="white"/>
</clipPath>
</defs>
</svg>
